<svg width="340" height="337" viewBox="0 0 340 337" fill="none" xmlns="http://www.w3.org/2000/svg">
    <g clip-path="url(#clip0_12_79)">
        <path d="M306.557 175.38C306.602 217.08 292.437 257.176 267.042 287.239C265.511 289.063 263.939 290.843 262.325 292.579C259.867 295.241 257.326 297.799 254.702 300.254C230.158 323.264 199.518 336.195 167.725 336.959C166.666 336.986 165.602 337 164.535 337C139.179 337 107.287 321.588 78.3456 300.254C75.9511 298.489 73.578 296.683 71.2261 294.836C70.1268 293.981 69.0328 293.113 67.9442 292.234C56.7818 283.264 46.1864 273.414 36.2363 262.757C29.7215 255.799 23.6124 248.365 17.9478 240.503C-4.29008 209.288 -9.19497 181.162 22.509 175.38C26.2626 174.698 29.9056 173.968 33.438 173.192C38.5548 172.073 43.4517 170.865 48.1287 169.567C54.4288 167.824 60.3477 165.935 65.8855 163.899C67.7483 163.216 69.5685 162.52 71.3461 161.811C97.6254 151.307 115.214 137.61 127.187 122.749C129.217 120.233 131.09 117.687 132.803 115.111C135.425 111.19 137.806 107.068 139.931 102.774C142.863 96.8088 145.325 90.56 147.29 84.1008L147.398 83.746C156.924 52.4765 154.026 23.4724 164.535 13.7649C209.459 -27.7352 265.387 31.3648 291.639 101.059C292.962 104.571 294.206 108.104 295.372 111.658C295.896 113.246 296.401 114.837 296.887 116.43C298.167 120.583 299.327 124.747 300.369 128.922C300.769 130.514 301.15 132.104 301.512 133.694C301.9 135.409 302.272 137.119 302.616 138.829C305.17 151.353 306.557 163.703 306.557 175.38Z" fill="#F2F2F2" />
        <path d="M167.725 336.959C166.666 336.986 165.602 337 164.535 337C139.179 337 107.287 321.588 78.3456 300.254C75.9511 298.489 73.5779 296.683 71.2261 294.836L73.2888 280.552L135.733 271.117L167.073 298.388L167.725 336.959Z" fill="#2F2E41" />
        <path d="M170.731 81.9037H161.833C161.557 81.9039 161.293 82.0285 161.098 82.2503C160.903 82.4721 160.794 82.7728 160.793 83.0864V93.2169C160.794 93.372 160.821 93.5255 160.873 93.6687C160.925 93.8118 161.002 93.9419 161.098 94.0513C161.195 94.1607 161.309 94.2474 161.435 94.3064C161.561 94.3654 161.696 94.3956 161.833 94.3951H170.731C171.006 94.3953 171.27 94.2713 171.465 94.0505C171.66 93.8296 171.77 93.5299 171.77 93.2169V83.0864C171.77 82.773 171.66 82.4727 171.465 82.2511C171.27 82.0295 171.006 81.9046 170.731 81.9037Z" fill="white" />
        <path d="M170.731 99.167H161.833C161.557 99.1672 161.293 99.2918 161.098 99.5136C160.903 99.7354 160.794 100.036 160.793 100.35V110.48C160.794 110.635 160.821 110.789 160.873 110.932C160.925 111.075 161.002 111.205 161.098 111.315C161.195 111.424 161.309 111.511 161.435 111.57C161.561 111.629 161.696 111.659 161.833 111.658H170.731C171.006 111.659 171.27 111.535 171.465 111.314C171.66 111.093 171.77 110.793 171.77 110.48V100.35C171.77 100.036 171.66 99.736 171.465 99.5144C171.27 99.2928 171.006 99.1679 170.731 99.167Z" fill="#E6E6E6" />
        <path d="M170.731 116.43H161.833C161.557 116.43 161.293 116.555 161.098 116.777C160.903 116.999 160.794 117.299 160.793 117.613V127.739C160.793 127.894 160.82 128.048 160.872 128.192C160.924 128.336 161.001 128.466 161.097 128.576C161.194 128.686 161.308 128.773 161.435 128.832C161.561 128.892 161.696 128.922 161.833 128.922H170.731C171.007 128.922 171.271 128.797 171.466 128.575C171.661 128.353 171.77 128.053 171.77 127.739V117.613C171.77 117.3 171.66 116.999 171.465 116.778C171.27 116.556 171.007 116.431 170.731 116.43Z" fill="#E6E6E6" />
        <path d="M171.754 134.667C171.71 134.395 171.584 134.148 171.397 133.971C171.21 133.793 170.975 133.695 170.731 133.694H161.833C161.557 133.694 161.293 133.818 161.098 134.04C160.903 134.262 160.794 134.563 160.793 134.876V145.002C160.793 145.158 160.82 145.312 160.872 145.455C160.924 145.599 161.001 145.729 161.097 145.839C161.194 145.949 161.308 146.036 161.435 146.096C161.561 146.155 161.696 146.185 161.833 146.185H170.731C171.007 146.185 171.271 146.06 171.466 145.838C171.661 145.617 171.77 145.316 171.77 145.002V134.876C171.771 134.806 171.766 134.736 171.754 134.667Z" fill="#E6E6E6" />
        <path d="M171.135 151.048C171.007 150.988 170.87 150.957 170.731 150.957H161.833C161.696 150.957 161.561 150.987 161.435 151.046C161.308 151.106 161.194 151.193 161.097 151.303C161.001 151.412 160.924 151.543 160.872 151.687C160.82 151.83 160.793 151.984 160.793 152.14V162.266C160.793 162.421 160.819 162.575 160.871 162.719C160.923 162.863 161 162.993 161.096 163.103C161.193 163.213 161.308 163.3 161.434 163.36C161.561 163.419 161.696 163.449 161.833 163.448H170.731C171.007 163.448 171.271 163.324 171.466 163.102C171.661 162.88 171.77 162.579 171.77 162.266V152.14C171.77 151.907 171.709 151.679 171.597 151.485C171.484 151.291 171.323 151.139 171.135 151.048Z" fill="#E6E6E6" />
        <path d="M189.423 81.9037H180.525C180.249 81.9039 179.985 82.0285 179.79 82.2503C179.595 82.4721 179.486 82.7728 179.486 83.0864V93.2169C179.486 93.372 179.513 93.5255 179.565 93.6687C179.617 93.8118 179.694 93.9419 179.791 94.0513C179.887 94.1607 180.002 94.2474 180.128 94.3064C180.254 94.3654 180.389 94.3956 180.525 94.3951H189.423C189.698 94.3953 189.962 94.2713 190.157 94.0505C190.352 93.8296 190.462 93.5299 190.463 93.2169V83.0864C190.462 82.773 190.352 82.4727 190.157 82.2511C189.963 82.0295 189.699 81.9046 189.423 81.9037Z" fill="#E6E6E6" />
        <path d="M189.423 99.167H180.525C180.249 99.1672 179.985 99.2918 179.79 99.5136C179.595 99.7354 179.486 100.036 179.486 100.35V110.48C179.486 110.635 179.513 110.789 179.565 110.932C179.617 111.075 179.694 111.205 179.791 111.315C179.887 111.424 180.002 111.511 180.128 111.57C180.254 111.629 180.389 111.659 180.525 111.658H189.423C189.698 111.659 189.962 111.535 190.157 111.314C190.352 111.093 190.462 110.793 190.463 110.48V100.35C190.462 100.036 190.352 99.736 190.157 99.5144C189.963 99.2928 189.699 99.1679 189.423 99.167Z" fill="#F6F7EB" />
        <path d="M189.423 116.43H180.525C180.249 116.43 179.985 116.555 179.79 116.777C179.595 116.999 179.486 117.299 179.486 117.613V127.739C179.485 127.894 179.512 128.048 179.564 128.192C179.616 128.336 179.693 128.466 179.789 128.576C179.886 128.686 180.001 128.773 180.127 128.832C180.253 128.892 180.388 128.922 180.525 128.922H189.423C189.699 128.922 189.963 128.797 190.158 128.575C190.353 128.353 190.462 128.053 190.463 127.739V117.613C190.462 117.3 190.352 116.999 190.157 116.778C189.963 116.556 189.699 116.431 189.423 116.43Z" fill="#F6F7EB" />
        <path d="M189.423 133.694H180.525C180.307 133.694 180.095 133.772 179.918 133.917C179.742 134.063 179.61 134.268 179.542 134.503C179.505 134.623 179.486 134.749 179.486 134.876V145.002C179.485 145.158 179.512 145.312 179.564 145.455C179.616 145.599 179.693 145.729 179.789 145.839C179.886 145.949 180.001 146.036 180.127 146.096C180.253 146.155 180.388 146.185 180.525 146.185H189.423C189.699 146.185 189.963 146.06 190.158 145.838C190.353 145.617 190.463 145.316 190.463 145.002V134.876C190.462 134.563 190.352 134.263 190.157 134.041C189.963 133.819 189.699 133.694 189.423 133.694Z" fill="#F6F7EB" />
        <path d="M189.423 150.957H180.525C180.388 150.957 180.253 150.987 180.127 151.046C180.001 151.106 179.886 151.193 179.789 151.303C179.693 151.412 179.616 151.543 179.564 151.687C179.512 151.83 179.485 151.984 179.486 152.14V162.266C179.485 162.421 179.512 162.575 179.564 162.719C179.616 162.862 179.693 162.993 179.789 163.103C179.886 163.212 180.001 163.3 180.127 163.359C180.253 163.418 180.388 163.449 180.525 163.448H189.423C189.699 163.448 189.963 163.324 190.158 163.102C190.353 162.88 190.463 162.579 190.463 162.266V152.14C190.463 151.826 190.353 151.525 190.158 151.303C189.963 151.082 189.699 150.957 189.423 150.957Z" fill="#E6E6E6" />
        <path d="M208.115 81.9037H199.217C198.941 81.9039 198.677 82.0285 198.482 82.2503C198.287 82.4721 198.178 82.7728 198.178 83.0864V93.2169C198.178 93.372 198.205 93.5255 198.257 93.6687C198.31 93.8118 198.386 93.9419 198.483 94.0513C198.579 94.1607 198.694 94.2474 198.82 94.3064C198.946 94.3654 199.081 94.3956 199.217 94.3951H208.115C208.39 94.3953 208.654 94.2713 208.849 94.0505C209.044 93.8296 209.154 93.5299 209.155 93.2169V83.0864C209.154 82.773 209.044 82.4727 208.849 82.2511C208.655 82.0295 208.391 81.9046 208.115 81.9037Z" fill="#F6F7EB" />
        <path d="M208.115 99.167H199.217C198.941 99.1672 198.677 99.2918 198.482 99.5136C198.287 99.7354 198.178 100.036 198.178 100.35V110.48C198.178 110.635 198.205 110.789 198.257 110.932C198.31 111.075 198.386 111.205 198.483 111.315C198.579 111.424 198.694 111.511 198.82 111.57C198.946 111.629 199.081 111.659 199.217 111.658H208.115C208.39 111.659 208.654 111.535 208.849 111.314C209.044 111.093 209.154 110.793 209.155 110.48V100.35C209.154 100.036 209.044 99.736 208.849 99.5144C208.655 99.2928 208.391 99.1679 208.115 99.167Z" fill="#F6F7EB" />
        <path d="M208.115 116.43H199.217C198.941 116.43 198.677 116.555 198.482 116.777C198.287 116.999 198.178 117.299 198.178 117.613V127.739C198.177 127.894 198.204 128.048 198.256 128.192C198.308 128.336 198.385 128.466 198.482 128.576C198.578 128.686 198.693 128.773 198.819 128.832C198.945 128.892 199.08 128.922 199.217 128.922H208.115C208.391 128.922 208.655 128.797 208.85 128.575C209.045 128.353 209.155 128.053 209.155 127.739V117.613C209.154 117.3 209.044 116.999 208.849 116.778C208.655 116.556 208.391 116.431 208.115 116.43Z" fill="#E6E6E6" />
        <path d="M208.115 133.694H199.217C198.941 133.694 198.677 133.818 198.482 134.04C198.287 134.262 198.178 134.563 198.178 134.876V145.002C198.177 145.158 198.204 145.312 198.256 145.455C198.308 145.599 198.385 145.729 198.482 145.839C198.578 145.949 198.693 146.036 198.819 146.096C198.945 146.155 199.08 146.185 199.217 146.185H208.115C208.391 146.185 208.655 146.06 208.85 145.838C209.045 145.617 209.155 145.316 209.155 145.002V134.876C209.154 134.563 209.044 134.263 208.849 134.041C208.655 133.819 208.391 133.694 208.115 133.694Z" fill="#F6F7EB" />
        <path d="M208.115 150.957H199.217C199.08 150.957 198.945 150.987 198.819 151.046C198.693 151.106 198.578 151.193 198.482 151.303C198.385 151.412 198.308 151.543 198.256 151.687C198.204 151.83 198.177 151.984 198.178 152.14V162.266C198.177 162.421 198.204 162.575 198.256 162.719C198.308 162.862 198.385 162.993 198.482 163.103C198.578 163.212 198.693 163.3 198.819 163.359C198.945 163.418 199.08 163.449 199.217 163.448H208.115C208.391 163.448 208.655 163.324 208.85 163.102C209.045 162.88 209.155 162.579 209.155 162.266V152.14C209.155 151.826 209.045 151.525 208.85 151.303C208.655 151.082 208.391 150.957 208.115 150.957Z" fill="#F6F7EB" />
        <path d="M226.808 81.9037H217.909C217.634 81.9039 217.369 82.0285 217.174 82.2503C216.98 82.4721 216.87 82.7728 216.87 83.0864V93.2169C216.87 93.372 216.897 93.5255 216.949 93.6687C217.002 93.8118 217.078 93.9419 217.175 94.0513C217.271 94.1607 217.386 94.2474 217.512 94.3064C217.638 94.3654 217.773 94.3956 217.909 94.3951H226.808C227.083 94.3953 227.346 94.2713 227.541 94.0505C227.736 93.8296 227.846 93.5299 227.847 93.2169V83.0864C227.846 82.773 227.736 82.4727 227.542 82.2511C227.347 82.0295 227.083 81.9046 226.808 81.9037Z" fill="#F6F7EB" />
        <path d="M226.808 99.167H217.909C217.634 99.1672 217.369 99.2918 217.174 99.5136C216.98 99.7354 216.87 100.036 216.87 100.35V110.48C216.87 110.635 216.897 110.789 216.949 110.932C217.002 111.075 217.078 111.205 217.175 111.315C217.271 111.424 217.386 111.511 217.512 111.57C217.638 111.629 217.773 111.659 217.909 111.658H226.808C227.083 111.659 227.346 111.535 227.541 111.314C227.736 111.093 227.846 110.793 227.847 110.48V100.35C227.846 100.036 227.736 99.736 227.542 99.5144C227.347 99.2928 227.083 99.1679 226.808 99.167Z" fill="white" />
        <path d="M226.808 116.43H217.909C217.634 116.43 217.369 116.555 217.174 116.777C216.98 116.999 216.87 117.299 216.87 117.613V127.739C216.87 127.894 216.896 128.048 216.948 128.192C217.001 128.336 217.077 128.466 217.174 128.576C217.27 128.686 217.385 128.773 217.511 128.832C217.637 128.892 217.773 128.922 217.909 128.922H226.808C227.083 128.922 227.347 128.797 227.542 128.575C227.737 128.353 227.847 128.053 227.847 127.739V117.613C227.846 117.3 227.736 116.999 227.542 116.778C227.347 116.556 227.083 116.431 226.808 116.43Z" fill="white" />
        <path d="M226.808 133.694H217.909C217.634 133.694 217.369 133.818 217.174 134.04C216.98 134.262 216.87 134.563 216.87 134.876V145.002C216.87 145.158 216.896 145.312 216.948 145.455C217.001 145.599 217.077 145.729 217.174 145.839C217.27 145.949 217.385 146.036 217.511 146.096C217.637 146.155 217.773 146.185 217.909 146.185H226.808C227.083 146.185 227.347 146.06 227.542 145.838C227.737 145.617 227.847 145.316 227.847 145.002V134.876C227.846 134.563 227.736 134.263 227.542 134.041C227.347 133.819 227.083 133.694 226.808 133.694Z" fill="#E6E6E6" />
        <path d="M226.808 150.957H217.909C217.773 150.957 217.637 150.987 217.511 151.046C217.385 151.106 217.27 151.193 217.174 151.303C217.077 151.412 217.001 151.543 216.948 151.687C216.896 151.83 216.87 151.984 216.87 152.14V162.266C216.87 162.421 216.896 162.575 216.948 162.719C217.001 162.862 217.077 162.993 217.174 163.103C217.27 163.212 217.385 163.3 217.511 163.359C217.637 163.418 217.773 163.449 217.909 163.448H226.808C227.083 163.448 227.347 163.324 227.542 163.102C227.737 162.88 227.847 162.579 227.847 162.266V152.14C227.847 151.826 227.737 151.525 227.542 151.303C227.347 151.082 227.083 150.957 226.808 150.957Z" fill="#F6F7EB" />
        <path d="M245.5 81.9037H236.597C236.322 81.9048 236.059 82.0299 235.865 82.2516C235.671 82.4733 235.562 82.7735 235.562 83.0864V93.2169C235.562 93.5294 235.671 93.829 235.865 94.05C236.059 94.2709 236.323 94.3951 236.597 94.3951H245.5C245.775 94.3953 246.039 94.2713 246.233 94.0505C246.428 93.8296 246.538 93.5299 246.539 93.2169V83.0864C246.538 82.773 246.429 82.4727 246.234 82.2511C246.039 82.0295 245.775 81.9046 245.5 81.9037Z" fill="white" />
        <path d="M245.5 99.167H236.597C236.322 99.1681 236.059 99.2932 235.865 99.5149C235.671 99.7366 235.562 100.037 235.562 100.35V110.48C235.562 110.793 235.671 111.092 235.865 111.313C236.059 111.534 236.323 111.658 236.597 111.658H245.5C245.775 111.659 246.039 111.535 246.233 111.314C246.428 111.093 246.538 110.793 246.539 110.48V100.35C246.538 100.036 246.429 99.736 246.234 99.5144C246.039 99.2928 245.775 99.1679 245.5 99.167Z" fill="white" />
        <path d="M245.5 116.43H236.597C236.322 116.431 236.059 116.557 235.865 116.778C235.671 117 235.562 117.3 235.562 117.613V127.739C235.562 127.894 235.588 128.048 235.64 128.191C235.692 128.335 235.768 128.465 235.864 128.575C235.96 128.685 236.075 128.772 236.2 128.831C236.326 128.891 236.461 128.922 236.597 128.922H245.5C245.775 128.922 246.04 128.797 246.235 128.575C246.429 128.353 246.539 128.053 246.539 127.739V117.613C246.538 117.3 246.429 116.999 246.234 116.778C246.039 116.556 245.775 116.431 245.5 116.43Z" fill="white" />
        <path d="M245.5 133.694H236.597C236.322 133.695 236.059 133.82 235.865 134.041C235.671 134.263 235.562 134.563 235.562 134.876V145.002C235.562 145.157 235.588 145.311 235.64 145.454C235.692 145.598 235.768 145.728 235.864 145.838C235.96 145.948 236.075 146.035 236.2 146.095C236.326 146.154 236.461 146.185 236.597 146.185H245.5C245.775 146.185 246.04 146.06 246.235 145.838C246.429 145.617 246.539 145.316 246.539 145.002V134.876C246.538 134.563 246.429 134.263 246.234 134.041C246.039 133.819 245.775 133.694 245.5 133.694Z" fill="#F6F7EB" />
        <path d="M245.5 150.957H236.597C236.461 150.957 236.326 150.988 236.2 151.047C236.075 151.107 235.96 151.194 235.864 151.304C235.768 151.414 235.692 151.544 235.64 151.688C235.588 151.831 235.562 151.985 235.562 152.14V162.266C235.562 162.421 235.588 162.574 235.64 162.718C235.692 162.861 235.768 162.991 235.864 163.101C235.96 163.211 236.075 163.298 236.2 163.358C236.326 163.417 236.461 163.448 236.597 163.448H245.5C245.775 163.448 246.04 163.324 246.235 163.102C246.429 162.88 246.539 162.579 246.539 162.266V152.14C246.539 151.826 246.429 151.525 246.235 151.303C246.04 151.082 245.775 150.957 245.5 150.957Z" fill="#E6E6E6" />
        <path d="M264.192 81.9037H255.29C255.015 81.9048 254.751 82.0299 254.557 82.2516C254.363 82.4733 254.254 82.7735 254.254 83.0864V93.2169C254.254 93.5294 254.363 93.829 254.557 94.05C254.752 94.2709 255.015 94.3951 255.29 94.3951H264.192C264.467 94.3952 264.731 94.2713 264.925 94.0504C265.12 93.8296 265.23 93.5299 265.231 93.2169V83.0864C265.23 82.773 265.121 82.4727 264.926 82.2511C264.731 82.0295 264.467 81.9047 264.192 81.9037Z" fill="white" />
        <path d="M264.192 99.167H255.29C255.015 99.1681 254.751 99.2932 254.557 99.5149C254.363 99.7366 254.254 100.037 254.254 100.35V110.48C254.254 110.793 254.363 111.092 254.557 111.313C254.752 111.534 255.015 111.658 255.29 111.658H264.192C264.467 111.659 264.731 111.535 264.925 111.314C265.12 111.093 265.23 110.793 265.231 110.48V100.35C265.23 100.036 265.121 99.736 264.926 99.5144C264.731 99.2928 264.467 99.1679 264.192 99.167Z" fill="white" />
        <path d="M264.192 116.43H255.29C255.015 116.431 254.751 116.557 254.557 116.778C254.363 117 254.254 117.3 254.254 117.613V127.739C254.254 127.894 254.28 128.048 254.332 128.191C254.384 128.335 254.46 128.465 254.556 128.575C254.652 128.685 254.767 128.772 254.893 128.831C255.018 128.891 255.153 128.922 255.29 128.922H264.192C264.467 128.922 264.732 128.797 264.927 128.575C265.122 128.353 265.231 128.053 265.231 127.739V117.613C265.23 117.3 265.121 116.999 264.926 116.778C264.731 116.556 264.467 116.431 264.192 116.43Z" fill="#F6F7EB" />
        <path d="M264.192 133.694H255.29C255.015 133.695 254.751 133.82 254.557 134.041C254.363 134.263 254.254 134.563 254.254 134.876V145.002C254.254 145.157 254.28 145.311 254.332 145.454C254.384 145.598 254.46 145.728 254.556 145.838C254.652 145.948 254.767 146.035 254.893 146.095C255.018 146.154 255.153 146.185 255.29 146.185H264.192C264.467 146.185 264.732 146.06 264.927 145.838C265.122 145.617 265.231 145.316 265.231 145.002V134.876C265.23 134.563 265.121 134.263 264.926 134.041C264.731 133.819 264.467 133.694 264.192 133.694Z" fill="#E6E6E6" />
        <path d="M264.192 150.957H255.29C255.153 150.957 255.018 150.988 254.893 151.047C254.767 151.107 254.652 151.194 254.556 151.304C254.46 151.414 254.384 151.544 254.332 151.688C254.28 151.831 254.254 151.985 254.254 152.14V162.266C254.254 162.421 254.28 162.574 254.332 162.718C254.384 162.861 254.46 162.991 254.556 163.101C254.652 163.211 254.767 163.298 254.893 163.358C255.018 163.417 255.153 163.448 255.29 163.448H264.192C264.467 163.448 264.732 163.323 264.927 163.102C265.122 162.88 265.231 162.579 265.231 162.266V152.14C265.231 151.826 265.122 151.525 264.927 151.303C264.732 151.082 264.467 150.957 264.192 150.957Z" fill="white" />
        <path d="M282.884 81.9037H273.982C273.707 81.9048 273.444 82.0299 273.249 82.2516C273.055 82.4733 272.946 82.7735 272.947 83.0864V93.2169C272.947 93.5294 273.056 93.829 273.25 94.05C273.444 94.2709 273.707 94.3951 273.982 94.3951H282.884C283.159 94.3952 283.423 94.2713 283.618 94.0504C283.813 93.8296 283.923 93.5299 283.924 93.2169V83.0864C283.923 82.773 283.813 82.4727 283.618 82.2511C283.424 82.0295 283.16 81.9047 282.884 81.9037Z" fill="#F6F7EB" />
        <path d="M282.884 99.167H273.982C273.707 99.1681 273.443 99.2932 273.249 99.5149C273.055 99.7366 272.946 100.037 272.947 100.35V110.48C272.947 110.793 273.056 111.092 273.25 111.313C273.444 111.534 273.707 111.658 273.982 111.658H282.884C283.159 111.659 283.423 111.535 283.618 111.314C283.813 111.093 283.923 110.793 283.924 110.48V100.35C283.923 100.036 283.813 99.736 283.618 99.5144C283.424 99.2928 283.16 99.1679 282.884 99.167Z" fill="#F6F7EB" />
        <path d="M282.884 116.43H273.982C273.707 116.431 273.443 116.557 273.249 116.778C273.055 117 272.946 117.3 272.947 117.613V127.739C272.946 127.894 272.973 128.048 273.024 128.191C273.076 128.335 273.153 128.465 273.249 128.575C273.345 128.685 273.459 128.772 273.585 128.831C273.711 128.891 273.846 128.922 273.982 128.922H282.884C283.16 128.922 283.424 128.797 283.619 128.575C283.814 128.353 283.923 128.053 283.924 127.739V117.613C283.923 117.3 283.813 116.999 283.618 116.778C283.424 116.556 283.16 116.431 282.884 116.43Z" fill="#E6E6E6" />
        <path d="M282.884 133.694H273.982C273.707 133.695 273.444 133.82 273.249 134.041C273.055 134.263 272.946 134.563 272.947 134.876V145.002C272.946 145.157 272.973 145.311 273.024 145.454C273.076 145.598 273.153 145.728 273.249 145.838C273.345 145.948 273.459 146.035 273.585 146.095C273.711 146.154 273.846 146.185 273.982 146.185H282.884C283.16 146.185 283.424 146.06 283.619 145.838C283.814 145.617 283.923 145.316 283.924 145.002V134.876C283.923 134.563 283.813 134.263 283.618 134.041C283.424 133.819 283.16 133.694 282.884 133.694Z" fill="white" />
        <path d="M282.884 150.957H273.982C273.846 150.957 273.711 150.988 273.585 151.047C273.459 151.107 273.345 151.194 273.249 151.304C273.153 151.414 273.076 151.544 273.024 151.688C272.973 151.831 272.946 151.985 272.947 152.14V162.266C272.946 162.421 272.973 162.574 273.024 162.718C273.076 162.861 273.153 162.991 273.249 163.101C273.345 163.211 273.459 163.298 273.585 163.358C273.711 163.417 273.846 163.448 273.982 163.448H282.884C283.16 163.448 283.424 163.323 283.619 163.102C283.814 162.88 283.923 162.579 283.924 162.266V152.14C283.923 151.826 283.814 151.525 283.619 151.303C283.424 151.082 283.16 150.957 282.884 150.957Z" fill="#F6F7EB" />
        <path d="M301.576 81.9037H292.674C292.399 81.9048 292.136 82.0299 291.942 82.2516C291.748 82.4733 291.639 82.7735 291.639 83.0864V93.2169C291.639 93.5294 291.748 93.829 291.942 94.05C292.136 94.2709 292.399 94.3951 292.674 94.3951H301.576C301.851 94.3952 302.115 94.2713 302.31 94.0504C302.505 93.8296 302.615 93.5299 302.616 93.2169V83.0864C302.615 82.773 302.505 82.4727 302.31 82.2511C302.116 82.0295 301.852 81.9047 301.576 81.9037Z" fill="#F6F7EB" />
        <path d="M301.576 99.167H292.674C292.399 99.1681 292.136 99.2932 291.942 99.5149C291.747 99.7366 291.639 100.037 291.639 100.35V110.48C291.639 110.793 291.748 111.092 291.942 111.313C292.136 111.534 292.399 111.658 292.674 111.658H301.576C301.851 111.659 302.115 111.535 302.31 111.314C302.505 111.093 302.615 110.793 302.616 110.48V100.35C302.615 100.036 302.505 99.736 302.31 99.5144C302.116 99.2928 301.852 99.1679 301.576 99.167Z" fill="#F6F7EB" />
        <path d="M301.576 116.43H292.674C292.399 116.431 292.136 116.557 291.942 116.778C291.747 117 291.639 117.3 291.639 117.613V127.739C291.638 127.894 291.665 128.048 291.717 128.191C291.768 128.335 291.845 128.465 291.941 128.575C292.037 128.685 292.151 128.772 292.277 128.831C292.403 128.891 292.538 128.922 292.674 128.922H301.576C301.852 128.922 302.116 128.797 302.311 128.575C302.506 128.353 302.616 128.053 302.616 127.739V117.613C302.615 117.3 302.505 116.999 302.31 116.778C302.116 116.556 301.852 116.431 301.576 116.43Z" fill="#E6E6E6" />
        <path d="M301.576 133.694H292.674C292.399 133.695 292.136 133.82 291.942 134.041C291.748 134.263 291.639 134.563 291.639 134.876V145.002C291.638 145.157 291.665 145.311 291.717 145.454C291.768 145.598 291.845 145.728 291.941 145.838C292.037 145.948 292.151 146.035 292.277 146.095C292.403 146.154 292.538 146.185 292.674 146.185H301.576C301.852 146.185 302.116 146.06 302.311 145.838C302.506 145.617 302.616 145.316 302.616 145.002V134.876C302.615 134.563 302.505 134.263 302.31 134.041C302.116 133.819 301.852 133.694 301.576 133.694Z" fill="#F6F7EB" />
        <path d="M301.576 150.957H292.674C292.538 150.957 292.403 150.988 292.277 151.047C292.151 151.107 292.037 151.194 291.941 151.304C291.845 151.414 291.768 151.544 291.717 151.688C291.665 151.831 291.638 151.985 291.639 152.14V162.266C291.638 162.421 291.665 162.574 291.717 162.718C291.768 162.861 291.845 162.991 291.941 163.101C292.037 163.211 292.151 163.298 292.277 163.358C292.403 163.417 292.538 163.448 292.674 163.448H301.576C301.852 163.448 302.116 163.323 302.311 163.102C302.506 162.88 302.616 162.579 302.616 162.266V152.14C302.616 151.826 302.506 151.525 302.311 151.303C302.116 151.082 301.852 150.957 301.576 150.957Z" fill="#F6F7EB" />
        <path d="M320.269 81.9037H311.366C311.091 81.9048 310.828 82.0299 310.634 82.2516C310.44 82.4733 310.331 82.7735 310.331 83.0864V93.2169C310.331 93.5294 310.44 93.829 310.634 94.05C310.828 94.2709 311.092 94.3951 311.366 94.3951H320.269C320.544 94.3952 320.807 94.2713 321.002 94.0504C321.197 93.8296 321.307 93.5299 321.308 93.2169V83.0864C321.307 82.773 321.197 82.4727 321.003 82.2511C320.808 82.0295 320.544 81.9047 320.269 81.9037Z" fill="#E6E6E6" />
        <path d="M320.269 99.167H311.366C311.091 99.1681 310.828 99.2932 310.634 99.5149C310.44 99.7366 310.331 100.037 310.331 100.35V110.48C310.331 110.793 310.44 111.092 310.634 111.313C310.828 111.534 311.092 111.658 311.366 111.658H320.269C320.544 111.659 320.807 111.535 321.002 111.314C321.197 111.093 321.307 110.793 321.308 110.48V100.35C321.307 100.036 321.197 99.736 321.003 99.5144C320.808 99.2928 320.544 99.1679 320.269 99.167Z" fill="#F6F7EB" />
        <path d="M320.269 116.43H311.366C311.091 116.431 310.828 116.557 310.634 116.778C310.44 117 310.331 117.3 310.331 117.613V127.739C310.33 127.894 310.357 128.048 310.409 128.191C310.461 128.335 310.537 128.465 310.633 128.575C310.729 128.685 310.843 128.772 310.969 128.831C311.095 128.891 311.23 128.922 311.366 128.922H320.269C320.544 128.922 320.808 128.797 321.003 128.575C321.198 128.353 321.308 128.053 321.308 127.739V117.613C321.307 117.3 321.197 116.999 321.003 116.778C320.808 116.556 320.544 116.431 320.269 116.43Z" fill="#F6F7EB" />
        <path d="M320.269 133.694H311.366C311.091 133.695 310.828 133.82 310.634 134.041C310.44 134.263 310.331 134.563 310.331 134.876V145.002C310.33 145.157 310.357 145.311 310.409 145.454C310.461 145.598 310.537 145.728 310.633 145.838C310.729 145.948 310.843 146.035 310.969 146.095C311.095 146.154 311.23 146.185 311.366 146.185H320.269C320.544 146.185 320.808 146.06 321.003 145.838C321.198 145.617 321.308 145.316 321.308 145.002V134.876C321.307 134.563 321.197 134.263 321.003 134.041C320.808 133.819 320.544 133.694 320.269 133.694Z" fill="#F6F7EB" />
        <path d="M320.269 150.957H311.366C311.23 150.957 311.095 150.988 310.969 151.047C310.843 151.107 310.729 151.194 310.633 151.304C310.537 151.414 310.461 151.544 310.409 151.688C310.357 151.831 310.33 151.985 310.331 152.14V162.266C310.33 162.421 310.357 162.574 310.409 162.718C310.461 162.861 310.537 162.991 310.633 163.101C310.729 163.211 310.843 163.298 310.969 163.358C311.095 163.417 311.23 163.448 311.366 163.448H320.269C320.544 163.448 320.808 163.323 321.003 163.102C321.198 162.88 321.308 162.579 321.308 162.266V152.14C321.308 151.826 321.198 151.525 321.003 151.303C320.808 151.082 320.544 150.957 320.269 150.957Z" fill="#E6E6E6" />
        <path d="M338.961 81.9037H330.058C329.783 81.9048 329.52 82.0299 329.326 82.2516C329.132 82.4733 329.023 82.7735 329.023 83.0864V93.2169C329.023 93.5294 329.132 93.829 329.326 94.05C329.52 94.2709 329.784 94.3951 330.058 94.3951H338.961C339.236 94.3952 339.5 94.2713 339.694 94.0504C339.889 93.8296 339.999 93.5299 340 93.2169V83.0864C339.999 82.773 339.889 82.4727 339.695 82.2511C339.5 82.0295 339.236 81.9047 338.961 81.9037Z" fill="#E6E6E6" />
        <path d="M338.961 99.167H330.058C329.783 99.1681 329.52 99.2932 329.326 99.5149C329.132 99.7366 329.023 100.037 329.023 100.35V110.48C329.023 110.793 329.132 111.092 329.326 111.313C329.52 111.534 329.784 111.658 330.058 111.658H338.961C339.236 111.659 339.5 111.535 339.694 111.314C339.889 111.093 339.999 110.793 340 110.48V100.35C339.999 100.036 339.889 99.736 339.695 99.5144C339.5 99.2928 339.236 99.1679 338.961 99.167Z" fill="#E6E6E6" />
        <path d="M338.961 116.43H330.058C329.783 116.431 329.52 116.557 329.326 116.778C329.132 117 329.023 117.3 329.023 117.613V127.739C329.023 127.894 329.049 128.048 329.101 128.191C329.153 128.335 329.229 128.465 329.325 128.575C329.421 128.685 329.536 128.772 329.661 128.831C329.787 128.891 329.922 128.922 330.058 128.922H338.961C339.236 128.922 339.501 128.797 339.695 128.575C339.89 128.353 340 128.053 340 127.739V117.613C339.999 117.3 339.889 116.999 339.695 116.778C339.5 116.556 339.236 116.431 338.961 116.43Z" fill="#F6F7EB" />
        <path d="M338.961 133.694H330.058C329.783 133.695 329.52 133.82 329.326 134.041C329.132 134.263 329.023 134.563 329.023 134.876V145.002C329.023 145.157 329.049 145.311 329.101 145.454C329.153 145.598 329.229 145.728 329.325 145.838C329.421 145.948 329.536 146.035 329.661 146.095C329.787 146.154 329.922 146.185 330.058 146.185H338.961C339.236 146.185 339.501 146.06 339.695 145.838C339.89 145.617 340 145.316 340 145.002V134.876C339.999 134.563 339.889 134.263 339.695 134.041C339.5 133.819 339.236 133.694 338.961 133.694Z" fill="#E6E6E6" />
        <path d="M338.961 150.957H330.058C329.922 150.957 329.787 150.988 329.661 151.047C329.536 151.107 329.421 151.194 329.325 151.304C329.229 151.414 329.153 151.544 329.101 151.688C329.049 151.831 329.023 151.985 329.023 152.14V162.266C329.023 162.421 329.049 162.574 329.101 162.718C329.153 162.861 329.229 162.991 329.325 163.101C329.421 163.211 329.536 163.298 329.661 163.358C329.787 163.417 329.922 163.448 330.058 163.448H338.961C339.236 163.448 339.501 163.323 339.695 163.102C339.89 162.88 340 162.579 340 162.266V152.14C340 151.826 339.89 151.525 339.695 151.303C339.501 151.082 339.236 150.957 338.961 150.957Z" fill="#E6E6E6" />
        <path d="M134.353 300.255H134.105L134.317 300.222L134.353 300.255Z" fill="#2F2E41" />
        <path d="M113.054 111.474C128.138 111.474 140.366 97.5596 140.366 80.3949C140.366 63.2303 128.138 49.3156 113.054 49.3156C97.9704 49.3156 85.7427 63.2303 85.7427 80.3949C85.7427 97.5596 97.9704 111.474 113.054 111.474Z" fill="#FFB6B6" />
        <path d="M136.972 57.6081C136.972 57.6081 144.115 42.0685 128.399 40.6558C128.399 40.6558 115.002 26.8259 101.346 38.1275C101.346 38.1275 93.8977 38.1275 89.8246 47.7192C89.8246 47.7192 83.9663 45.1909 82.6789 51.9573C82.6789 51.9573 78.3922 66.0843 82.6789 78.7986C86.9656 91.5129 88.3894 92.9255 88.3894 92.9255C88.3894 92.9255 81.3455 66.2694 98.491 64.8567C115.636 63.4439 134.823 51.251 136.252 66.7906C137.68 82.3302 139.831 86.1591 139.831 86.1591C139.831 86.1591 153.402 63.9653 136.972 57.6081Z" fill="#2F2E41" />
        <path d="M183.703 156.989L183.615 157.516L182.627 163.448L175.804 204.48L175.4 206.895L174.553 212.004L173.393 218.973L170.823 234.417L170.087 238.843L169.812 240.503L169.716 241.085L168.952 245.666L168.72 247.049L166.857 262.757L165.23 276.444L170.675 282.64L167.429 286.334L165.299 300.222L165.302 300.254H78.3455C74.8278 297.661 71.3606 294.987 67.9441 292.234L68.6597 286.138C68.6597 286.138 71.1221 275.252 70.0867 273.952C69.0554 272.651 66.7928 270.326 66.7928 270.326L69.643 262.757L70.0388 261.706L69.3752 246.044L69.3592 245.666L69.1394 240.503L69.1114 239.839L69.0674 238.843L68.2239 218.973L68.2079 218.645L67.9522 212.622L67.7123 206.895L67.6083 204.48L66.581 180.311L65.8854 163.899L65.2778 149.61L67.7203 148.669L93.8438 138.565L104.665 122.558L127.187 122.749L138.212 122.844L156.608 142.259L160.793 144.534L160.825 144.552L163.827 146.185L171.439 150.32L179.486 154.696L183.615 156.939L183.703 156.989Z" fill="#CACACA" />
        <path d="M107.575 253.627C105.925 254.355 104.155 254.662 102.389 254.527C100.623 254.391 98.9043 253.817 97.3546 252.844C95.8048 251.871 94.4613 250.524 93.4187 248.896C92.3761 247.269 91.6598 245.401 91.3202 243.424L48.7236 236.547L63.5314 217.486L101.712 226.939C104.668 226.51 107.659 227.329 110.119 229.243C112.58 231.156 114.338 234.03 115.061 237.319C115.784 240.609 115.421 244.086 114.041 247.092C112.662 250.097 110.361 252.423 107.575 253.627V253.627Z" fill="#FFB6B6" />
        <path d="M88.583 218.973C87.794 217.834 86.677 217.05 85.4291 216.757L67.9521 212.622L66.1573 212.199C65.1142 211.952 64.1288 211.456 63.2657 210.745C62.4025 210.034 61.681 209.124 61.1484 208.073C60.5959 206.971 60.2617 205.745 60.169 204.48C60.0857 203.33 60.2067 202.173 60.5248 201.077L66.581 180.311L70.5104 166.837C70.9867 165.212 71.2677 163.521 71.346 161.811C71.5649 157.076 70.2777 152.411 67.7202 148.669C65.4718 145.379 62.3532 143 58.8252 141.883C55.2973 140.766 51.5471 140.969 48.1286 142.464C48.0287 142.505 47.9248 142.55 47.8248 142.596C45.3733 143.71 43.183 145.457 41.427 147.7C39.6711 149.943 38.3976 152.62 37.7072 155.519L33.4379 173.192L24.6315 209.625C23.7499 213.275 23.5718 217.099 24.1094 220.835C24.647 224.57 25.8875 228.13 27.746 231.27C29.6046 234.409 32.0374 237.055 34.8778 239.025C37.7182 240.996 40.8992 242.245 44.2031 242.687L69.3752 246.044L81.0238 247.599C82.3708 247.784 83.7293 247.384 84.8287 246.479C85.9281 245.574 86.6877 244.232 86.9561 242.718C86.9749 242.636 86.9896 242.552 87 242.468L87.2798 240.503L89.6504 223.954L89.6743 223.786C89.7978 222.941 89.7645 222.077 89.5766 221.248C89.3886 220.419 89.0502 219.644 88.583 218.973Z" fill="#CACACA" />
        <path d="M134.708 254.158C136.432 254.613 138.223 254.633 139.954 254.216C141.686 253.798 143.316 252.954 144.73 251.742C146.143 250.531 147.306 248.981 148.137 247.202C148.967 245.424 149.445 243.459 149.536 241.448L190.855 227.804L173.833 211.31L137.206 226.795C134.226 226.845 131.366 228.136 129.167 230.425C126.969 232.714 125.584 235.841 125.276 239.214C124.968 242.587 125.758 245.971 127.497 248.725C129.235 251.48 131.801 253.413 134.708 254.158V254.158Z" fill="#FFB6B6" />
        <path d="M211.37 197.283L191.718 145.817C190.111 141.591 187.24 138.15 183.615 136.105C182.495 135.477 181.318 134.989 180.105 134.649C179.917 134.594 179.73 134.544 179.542 134.503C176.97 133.865 174.303 133.921 171.755 134.667C169.425 135.348 167.247 136.581 165.364 138.284C163.481 139.987 161.934 142.123 160.826 144.552C160.813 144.572 160.803 144.593 160.794 144.616C159.555 147.343 158.896 150.362 158.87 153.432C158.845 156.501 159.453 159.535 160.646 162.288L160.889 162.843L174.777 194.581C175.251 195.667 175.518 196.854 175.561 198.065C175.603 199.276 175.421 200.484 175.024 201.609C174.628 202.734 174.027 203.75 173.261 204.593C172.495 205.435 171.581 206.083 170.579 206.495L169.604 206.895L152.063 214.105C150.747 214.64 149.664 215.735 149.043 217.159C148.422 218.584 148.311 220.227 148.733 221.743L148.777 221.902L153.694 239.807C153.718 239.889 153.742 239.971 153.77 240.053C153.813 240.207 153.867 240.358 153.93 240.503C154.452 241.837 155.376 242.914 156.535 243.542C157.693 244.17 159.011 244.307 160.25 243.928L169.716 241.085L171.647 240.503L196.091 233.156C199.308 232.189 202.302 230.443 204.87 228.036C207.439 225.629 209.519 222.62 210.97 219.213C212.421 215.806 213.208 212.083 213.277 208.298C213.346 204.513 212.695 200.756 211.37 197.283L211.37 197.283Z" fill="#CACACA" />
        <path d="M17.9478 240.503C23.6123 248.365 29.7214 255.799 36.2362 262.756H216.91C218.651 262.76 220.319 263.548 221.55 264.949C222.78 266.35 223.472 268.25 223.474 270.23L223.734 322.33C234.848 316.519 245.257 309.098 254.702 300.254C257.324 297.802 259.865 295.244 262.325 292.579C263.936 290.842 265.508 289.062 267.042 287.239C278.54 273.608 287.851 257.79 294.553 240.503H17.9478Z" fill="#3F3D56" />
        <path d="M267.042 287.239C265.511 289.063 263.939 290.843 262.325 292.579H223.865V287.239H267.042Z" fill="white" />
        <path d="M183.343 116.43C183.153 116.031 182.872 115.698 182.529 115.466C182.187 115.234 181.795 115.111 181.396 115.111H50.3433C49.7557 115.113 49.1927 115.38 48.7776 115.853C48.3625 116.326 48.1291 116.967 48.1287 117.636V206.895H183.615V117.636C183.617 117.214 183.523 116.799 183.343 116.43Z" fill="#3F3D56" />
        <path d="M48.01 204.479V215.494C48.01 215.95 48.089 216.402 48.2426 216.824C48.3962 217.246 48.6212 217.629 48.905 217.952C49.1887 218.275 49.5256 218.531 49.8963 218.706C50.267 218.881 50.6643 218.971 51.0656 218.971H101.073V240.709H100.408C100.356 240.709 100.305 240.72 100.256 240.743C100.208 240.766 100.164 240.799 100.128 240.841C100.091 240.883 100.062 240.933 100.042 240.987C100.022 241.042 100.011 241.101 100.011 241.16V242.672C100.011 242.732 100.022 242.79 100.042 242.845C100.062 242.9 100.091 242.95 100.128 242.992C100.164 243.034 100.208 243.067 100.256 243.09C100.305 243.112 100.356 243.124 100.408 243.124H131.452C131.504 243.124 131.556 243.112 131.604 243.09C131.652 243.067 131.696 243.034 131.733 242.992C131.77 242.95 131.799 242.9 131.819 242.845C131.839 242.79 131.849 242.732 131.849 242.672V241.16C131.849 241.101 131.839 241.042 131.819 240.987C131.799 240.933 131.77 240.883 131.733 240.841C131.696 240.799 131.652 240.766 131.604 240.743C131.556 240.72 131.504 240.709 131.452 240.709H130.788V218.971H180.795C181.196 218.971 181.593 218.881 181.964 218.706C182.335 218.531 182.672 218.275 182.955 217.952C183.239 217.629 183.464 217.246 183.618 216.824C183.771 216.402 183.85 215.95 183.85 215.494V204.479H48.01Z" fill="#3F3D56" />
        <path d="M114.289 172.865C121.2 172.865 126.803 166.489 126.803 158.624C126.803 150.759 121.2 144.383 114.289 144.383C107.377 144.383 101.774 150.759 101.774 158.624C101.774 166.489 107.377 172.865 114.289 172.865Z" fill="#F6F7EB" />
        <path d="M146.175 78.6967H144.176C144.176 61.5017 129.221 50.2339 114.135 50.2248C111.941 50.2175 109.751 50.4598 107.599 50.9481C105.177 51.4985 102.662 52.1581 100.192 53.0179C90.45 56.4159 81.4157 62.9846 81.4157 78.6967C81.4136 81.7481 81.7549 84.7873 82.4311 87.74L80.4963 88.3132C79.7787 85.173 79.416 81.9414 79.417 78.6967C79.417 64.968 84.3699 55.538 92.9244 49.9155C97.4216 46.9587 102.91 45.0526 109.198 44.1247C111.815 43.7285 114.46 43.6371 117.093 43.8517C134.442 45.271 146.175 60.4099 146.175 78.6967Z" fill="#F6F7EB" />
        <path d="M149.505 79.9568L148.717 73.3335C148.523 71.6608 147.815 70.1203 146.718 68.9847C146.015 68.2443 145.172 67.6958 144.254 67.3806C143.337 67.0653 142.368 66.9916 141.422 67.1651L140.171 67.3607C139.828 67.412 139.498 67.5401 139.2 67.7377C138.901 67.9352 138.64 68.1983 138.432 68.5116C138.221 68.8238 138.068 69.1803 137.979 69.5606C137.891 69.9408 137.869 70.3372 137.916 70.7269L139.735 85.9841C139.81 86.606 140.055 87.1853 140.435 87.64C140.815 88.0947 141.311 88.4018 141.853 88.5179C142.014 88.5545 142.177 88.5728 142.341 88.5725C142.459 88.5725 142.576 88.5633 142.693 88.5452L144.092 88.3314C144.945 88.2026 145.766 87.8767 146.504 87.3737C147.243 86.8707 147.883 86.2012 148.385 85.4064C148.493 85.2335 148.597 85.0561 148.693 84.8742C149.442 83.3857 149.728 81.6531 149.505 79.9568Z" fill="#F6F7EB" />
        <path d="M139.363 67.6382C138.996 67.8411 138.677 68.1405 138.432 68.5116C138.221 68.8238 138.068 69.1804 137.979 69.5606C137.891 69.9408 137.869 70.3372 137.916 70.727L139.735 85.9841C139.81 86.606 140.055 87.1853 140.435 87.64C140.815 88.0947 141.311 88.4019 141.853 88.5179L139.363 67.6382Z" fill="white" />
        <path d="M149.505 79.9568L148.717 73.3335C148.523 71.6608 147.815 70.1203 146.718 68.9847L148.529 84.1645C148.556 84.4082 148.611 84.6468 148.693 84.8742C149.442 83.3857 149.728 81.6531 149.505 79.9568Z" fill="#3F3D56" />
        <path d="M143.281 84.7289C143.828 84.6445 144.103 83.1633 143.895 81.4207C143.687 79.678 143.075 78.3338 142.528 78.4182C141.981 78.5026 141.706 79.9838 141.914 81.7264C142.122 83.4691 142.734 84.8134 143.281 84.7289Z" fill="#3F3D56" />
        <path d="M142.081 76.5408C142.628 76.4564 142.903 74.9752 142.696 73.2326C142.488 71.4899 141.876 70.1457 141.329 70.2301C140.782 70.3145 140.507 71.7957 140.715 73.5383C140.923 75.281 141.535 76.6253 142.081 76.5408Z" fill="#3F3D56" />
        <path d="M149.677 79.7251C150.224 79.6407 150.499 78.1595 150.291 76.4168C150.083 74.6742 149.471 73.3299 148.924 73.4144C148.377 73.4988 148.102 74.9799 148.31 76.7226C148.518 78.4653 149.13 79.8095 149.677 79.7251Z" fill="#3F3D56" />
        <path d="M114.135 50.2248C111.941 50.2175 109.751 50.4598 107.599 50.9481C105.177 51.4985 102.662 52.1581 100.192 53.0179C96.3342 52.8041 93.496 51.6668 92.9243 49.9155C97.4215 46.9587 102.91 45.0526 109.198 44.1247C111.815 43.7285 114.46 43.6371 117.093 43.8517C117.372 44.0377 117.613 44.2886 117.8 44.5881C117.988 44.8876 118.117 45.2289 118.18 45.5894C118.368 47.1725 116.781 48.8556 114.135 50.2248Z" fill="#3F3D56" />
        <path d="M88.6152 94.4816L85.5371 79.9204C85.4274 79.3951 85.1837 78.9183 84.8366 78.5501C84.4895 78.1818 84.0546 77.9385 83.5864 77.8506C83.4541 77.8272 83.3205 77.815 83.1866 77.8142C82.9981 77.815 82.8102 77.841 82.627 77.8916L81.4357 78.2191C79.902 78.6412 78.578 79.7385 77.7544 81.2702C76.9307 82.8019 76.6747 84.6428 77.0425 86.389L78.4216 92.9213C78.7365 94.4592 79.4865 95.8368 80.5563 96.8425C80.7296 97.0018 80.9112 97.1491 81.0999 97.2838C81.77 97.7617 82.5174 98.082 83.2981 98.2257C84.0787 98.3695 84.8767 98.3338 85.6451 98.1208L86.8323 97.7933C87.1462 97.7099 87.4416 97.5535 87.6998 97.3338C88.0837 97.0153 88.3757 96.574 88.5387 96.0662C88.7017 95.5583 88.7283 95.0067 88.6152 94.4816Z" fill="#F6F7EB" />
        <path d="M82.1623 91.7723C82.699 91.6254 82.8409 90.1202 82.4793 88.4104C82.1177 86.7006 81.3896 85.4336 80.853 85.5805C80.3164 85.7275 80.1745 87.2327 80.536 88.9425C80.8976 90.6523 81.6257 91.9193 82.1623 91.7723Z" fill="#3F3D56" />
        <path d="M78.1648 93.137C78.7014 92.9901 78.8433 91.4849 78.4817 89.7751C78.1202 88.0652 77.392 86.7983 76.8554 86.9452C76.3188 87.0922 76.1769 88.5974 76.5385 90.3072C76.9 92.017 77.6282 93.284 78.1648 93.137Z" fill="#3F3D56" />
        <path d="M88.8109 94.427L85.7328 79.8658C85.6129 79.2974 85.3483 78.7819 84.9722 78.3838C84.596 77.9857 84.125 77.7227 83.6182 77.6277L87.8195 97.5157C88.2344 97.1699 88.55 96.692 88.7265 96.1423C88.9029 95.5926 88.9323 94.9957 88.8109 94.427Z" fill="white" />
        <path d="M77.7381 83.505C77.6532 83.1 77.4937 82.7202 77.2704 82.3905C76.8377 83.6656 76.7582 85.0609 77.0425 86.389L78.4217 92.9213C78.7366 94.4592 79.4865 95.8368 80.5563 96.8425L77.7381 83.505Z" fill="#3F3D56" />
    </g>
    <defs>
        <clipPath id="clip0_12_79">
            <rect width="340" height="337" fill="white" />
        </clipPath>
    </defs>
</svg>