<svg width="60" height="60" viewBox="0 0 60 60" fill="none" xmlns="http://www.w3.org/2000/svg">
    <path d="M42.5 35C44.9062 34.9911 47.2586 34.288 49.275 32.975L50 32.5C50.4027 32.227 50.7793 31.9173 51.125 31.575L51.65 31.075C52.09 30.6262 52.4914 30.1411 52.85 29.625L53 29.425C53.4049 28.8278 53.7483 28.1913 54.025 27.525C54.115 27.3395 54.1902 27.1473 54.25 26.95C54.4577 26.4389 54.6249 25.9123 54.75 25.375L54.9 24.75C54.9948 24.004 55.0282 23.2515 55 22.5V5L47.5 12.5H37.5L30 5V22.5C30 25.8152 31.317 28.9946 33.6612 31.3388C36.0054 33.683 39.1848 35 42.5 35ZM47.5 17.5C47.9945 17.5 48.4778 17.6466 48.8889 17.9213C49.3 18.196 49.6205 18.5865 49.8097 19.0433C49.9989 19.5001 50.0484 20.0028 49.952 20.4877C49.8555 20.9727 49.6174 21.4181 49.2678 21.7678C48.9181 22.1174 48.4727 22.3555 47.9877 22.452C47.5028 22.5484 47.0001 22.4989 46.5433 22.3097C46.0865 22.1205 45.696 21.8 45.4213 21.3889C45.1466 20.9778 45 20.4945 45 20C45 19.337 45.2634 18.7011 45.7322 18.2322C46.2011 17.7634 46.837 17.5 47.5 17.5ZM37.5 17.5C37.9945 17.5 38.4778 17.6466 38.8889 17.9213C39.3 18.196 39.6205 18.5865 39.8097 19.0433C39.9989 19.5001 40.0484 20.0028 39.952 20.4877C39.8555 20.9727 39.6174 21.4181 39.2678 21.7678C38.9181 22.1174 38.4727 22.3555 37.9877 22.452C37.5028 22.5484 37.0001 22.4989 36.5433 22.3097C36.0865 22.1205 35.696 21.8 35.4213 21.3889C35.1466 20.9778 35 20.4945 35 20C35 19.337 35.2634 18.7011 35.7322 18.2322C36.2011 17.7634 36.837 17.5 37.5 17.5Z" fill="#F6F7EB" />
    <path d="M27.5 55V42.5H20V55H12.5V29.75C11.2284 29.5653 10.0133 29.102 8.94155 28.3933C7.86978 27.6845 6.96778 26.7478 6.3 25.65C5.49277 24.3207 5.0448 22.8045 5 21.25C5.04533 20.0062 5.34463 18.7849 5.87948 17.661C6.41433 16.5372 7.17343 15.5347 8.11009 14.7151C9.04675 13.8955 10.1412 13.2762 11.3261 12.8953C12.5109 12.5143 13.7612 12.3798 15 12.5C15.6671 12.5401 16.3351 12.4382 16.9599 12.2011C17.5847 11.9641 18.1521 11.5971 18.6246 11.1246C19.0971 10.6521 19.4641 10.0847 19.7011 9.45985C19.9382 8.83505 20.0401 8.16707 20 7.5C20 6.83696 20.2634 6.20107 20.7322 5.73223C21.2011 5.26339 21.837 5 22.5 5C23.163 5 23.7989 5.26339 24.2678 5.73223C24.7366 6.20107 25 6.83696 25 7.5C25.038 8.82353 24.8053 10.1409 24.3162 11.3713C23.8271 12.6018 23.0919 13.7193 22.1556 14.6556C21.2194 15.5919 20.1018 16.3271 18.8713 16.8162C17.6409 17.3053 16.3235 17.538 15 17.5C10.475 17.5 10 20.4 10 21.275C10 22.15 10.45 25 15 25H27.725C28.0922 27.1537 28.9255 29.2012 30.1665 30.9993C31.4076 32.7974 33.0264 34.3027 34.9099 35.4099C36.7933 36.5171 38.8959 37.1995 41.0706 37.4094C43.2453 37.6193 45.4396 37.3516 47.5 36.625V55H40V42.5H35V55H27.5Z" fill="#F6F7EB" />
</svg>