<svg width="50" height="50" viewBox="0 0 50 50" fill="none" xmlns="http://www.w3.org/2000/svg">
    <path d="M42.9688 5.46875H7.03125C6.16699 5.46875 5.46875 6.16699 5.46875 7.03125V42.9688C5.46875 43.833 6.16699 44.5312 7.03125 44.5312H42.9688C43.833 44.5312 44.5312 43.833 44.5312 42.9688V7.03125C44.5312 6.16699 43.833 5.46875 42.9688 5.46875ZM38.457 16.8701H35.3369C32.8906 16.8701 32.417 18.0322 32.417 19.7412V23.5059H38.2568L37.4951 29.3994H32.417V44.5312H26.3281V29.4043H21.2354V23.5059H26.3281V19.1602C26.3281 14.1162 29.4092 11.3672 33.9111 11.3672C36.0693 11.3672 37.9199 11.5283 38.4619 11.6016V16.8701H38.457Z" fill="#F6F7EB" />
</svg>
