<svg width="75" height="50" viewBox="0 0 75 50" fill="none" xmlns="http://www.w3.org/2000/svg">
    <g clip-path="url(#clip0_12_382)">
        <path d="M22.7445 32.9939L24.9737 40.227C25.4746 41.8692 25.6835 43.0156 25.5998 43.6691C26.819 40.4037 27.6709 36.8453 28.1555 32.9939H30.836C29.6835 39.2641 28.1633 43.8205 26.2763 46.6629C24.8061 48.8533 23.1955 49.9484 21.4416 49.9484C20.974 49.9484 20.3975 49.8072 19.7134 49.5267V48.0152C20.0477 48.0642 20.4398 48.0904 20.8908 48.0904C21.709 48.0904 22.3684 47.8636 22.8701 47.411C23.4709 46.8596 23.7716 46.2398 23.7716 45.5529C23.7716 45.0838 23.537 44.1212 23.0701 42.6651L19.9641 32.9939H22.7444H22.7445ZM5.68333 28.5482L9.76642 41.006H9.79163L13.8998 28.5482H17.2562C17.9912 34.7264 18.4253 40.3792 18.5585 45.5032H15.7287C15.6292 40.7133 15.3534 36.2093 14.9024 31.9903H14.8777L10.5686 45.5032H8.41355L4.13046 31.9903H4.10525C3.78748 36.0421 3.58748 40.5461 3.5041 45.5032H0.923584C1.09035 39.4745 1.50768 33.8234 2.17559 28.5482H5.68347H5.68333Z" fill="#00758F" />
        <path d="M51.4247 28.2966C55.8169 28.2966 58.013 31.1026 58.013 36.7119C58.013 39.7601 57.3525 42.0625 56.0329 43.6179C55.7951 43.9022 55.5322 44.1477 55.2554 44.3752L58.3636 45.9121L58.3605 45.9119L57.257 47.8176L53.2093 45.4559C52.5383 45.6546 51.8001 45.7539 50.9956 45.7539C48.8391 45.7539 47.2282 45.1254 46.1631 43.8699C44.9941 42.4811 44.4098 40.2947 44.4098 37.3145C44.4098 34.2836 45.0691 31.9899 46.3892 30.4324C47.5915 29.0078 49.2703 28.2964 51.4247 28.2964V28.2966ZM37.9749 28.3212C39.5446 28.3212 40.972 28.7413 42.2577 29.5784L41.6047 31.0336C40.5045 30.5659 39.4199 30.3311 38.3502 30.3311C37.4823 30.3311 36.8136 30.54 36.3474 30.9603C35.8786 31.377 35.5886 31.9131 35.5886 32.5666C35.5886 33.5709 36.3041 34.4419 37.6252 35.1777C38.058 35.4143 38.4892 35.6536 38.919 35.8956L39.0176 35.951L39.067 35.9788L39.1657 36.0343L39.215 36.0621L39.3136 36.1177C40.3136 36.6814 41.2545 37.2195 41.2545 37.2195C42.5755 38.1572 43.2339 39.1569 43.2339 40.8035C43.2339 42.2414 42.707 43.4218 41.6565 44.3454C40.6054 45.2649 39.1932 45.726 37.4247 45.726C35.7707 45.726 34.1677 45.1953 32.615 44.1429L33.3414 42.6864C34.6776 43.3562 35.8868 43.6907 36.9726 43.6907C37.9909 43.6907 38.7881 43.4634 39.3647 43.0144C39.9402 42.5621 40.285 41.9313 40.285 41.1314C40.285 40.1247 39.5848 39.2641 38.3001 38.5421C37.898 38.32 37.4971 38.0957 37.0974 37.8692L36.9989 37.8135C36.8181 37.7113 36.6361 37.6079 36.4577 37.5066L36.361 37.4516C35.4935 36.9582 34.7435 36.5271 34.7435 36.5271C33.4593 35.5877 32.8153 34.5798 32.8153 32.9191C32.8153 31.5456 33.2955 30.4354 34.2545 29.5909C35.2158 28.7444 36.4561 28.3212 37.9749 28.3212V28.3212ZM63.1747 28.5482V43.4175H68.5097V45.5032H60.469V28.5482H63.1747ZM71.4742 43.424V43.7764H70.8876V45.5013H70.4392V43.7764H69.8299V43.424H71.4743H71.4742ZM72.5573 43.424L73.1204 44.84L73.6378 43.424H74.2734V45.5013H73.8508V43.9204L73.262 45.5013H72.9573L72.3674 43.9204H72.3448V45.5013H71.9449V43.424H72.5574H72.5573ZM51.1485 30.3817C48.5603 30.3817 47.2654 32.5178 47.2654 36.7871C47.2654 39.2327 47.6085 41.006 48.2935 42.1113C48.9279 43.1343 49.9214 43.6447 51.2743 43.6447C53.8626 43.6447 55.1573 41.492 55.1573 37.1886C55.1573 34.7772 54.8141 33.0191 54.13 31.9132C53.4949 30.8926 52.5018 30.3817 51.1487 30.3817H51.1485Z" fill="#F29111" />
        <path d="M44.3646 1.05058C45.2232 -1.05916 48.2253 0.538548 49.3903 1.27551C49.6759 1.4599 50.0034 1.84944 50.3307 1.99342C50.8415 2.01348 51.3518 2.05345 51.8634 2.07479C52.823 2.3003 53.7219 2.48454 54.478 2.9152C57.9921 4.98468 60.2796 7.09356 62.3849 10.5769C62.8348 11.3148 63.0595 12.1132 63.427 12.9116C63.9371 14.1017 64.5101 15.351 65.1021 16.4764C65.3671 17.0099 65.5722 17.6032 65.9402 18.0537C66.0839 18.2598 66.4921 18.3205 66.736 18.4436C67.4105 18.7927 68.2277 19.0577 68.8621 19.4675C70.0468 20.2062 71.1922 21.0864 72.2335 21.9875C72.6216 22.3354 72.886 22.8278 73.2558 23.1957V23.3814C72.9276 23.4821 72.6005 23.5853 72.2732 23.6679C71.5581 23.8516 70.9247 23.81 70.231 23.9939C69.8024 24.1182 69.2701 24.2822 68.8206 24.3239L68.8621 24.3658C69.1266 25.1215 70.5575 25.7361 71.212 26.1881C72.0068 26.7618 72.7434 27.4575 73.3362 28.2565C73.5409 28.4603 73.7456 28.6459 73.9494 28.8492C74.0918 29.0552 74.1319 29.3216 74.276 29.5053V29.5675C74.1164 29.5112 74.0017 29.4037 73.8929 29.2914L73.828 29.2236C73.7631 29.1563 73.6977 29.0901 73.623 29.0355C73.172 28.7275 72.7242 28.359 72.2732 28.0726C71.4978 27.5807 70.5985 27.2951 69.8024 26.8013C69.3522 26.5146 68.9232 26.1881 68.4941 25.86C68.1051 25.5725 67.6767 25.0204 67.4323 24.6106C67.2883 24.3843 67.2686 24.1182 67.1041 23.9545C67.1335 23.681 67.384 23.5997 67.6369 23.533L67.6951 23.5176C67.7823 23.495 67.8677 23.4724 67.9422 23.4424C69.0044 22.9914 70.2707 22.8278 71.906 22.8688C71.8444 22.4582 70.8226 21.9466 70.4964 21.7007C69.8416 21.2288 69.1484 20.7364 68.4538 20.3069C68.0858 20.082 67.4515 19.9178 67.0438 19.734C66.4921 19.5085 65.2658 19.2831 64.9601 18.8536C64.4408 18.1765 64.0677 17.3689 63.7055 16.5532L63.607 16.3305C63.5741 16.2563 63.5411 16.1822 63.5081 16.108C63.08 15.1257 62.5482 14.1014 62.1191 13.0956C61.8948 12.6049 61.7918 12.1742 61.5461 11.7036C60.0551 8.81563 57.8484 6.39772 55.1729 4.69729C54.2936 4.14399 53.3133 3.63196 52.231 3.28396C51.6177 3.09872 50.8816 3.20116 50.2282 3.05904H49.7981C49.431 2.9556 49.1246 2.56649 48.8382 2.36133C48.2057 1.93181 47.5722 1.64342 46.8157 1.33697C46.5507 1.21405 45.7938 0.927803 45.5296 1.15316C45.366 1.19428 45.283 1.25603 45.2428 1.42021C45.08 1.6652 45.2232 2.03425 45.3244 2.26018C45.6313 2.91491 46.06 3.30402 46.4491 3.85732C46.7952 4.348 47.2252 4.9013 47.4706 5.43482C48.0001 6.58167 48.2467 7.8523 48.7373 8.99901C48.9193 9.43024 49.2071 9.92093 49.472 10.3099C49.6965 10.6186 50.1047 10.8418 50.2282 11.2327C50.4743 11.6424 49.8597 12.9944 49.7174 13.4238C49.1852 15.1039 49.2883 17.4393 49.9012 18.8956L49.9339 18.9724L49.9666 19.0502C50.1903 19.5835 50.4299 20.1579 51.0249 20.307C51.0658 20.2663 51.0249 20.2877 51.1061 20.2663C51.2501 19.1391 51.2906 18.0536 51.6792 17.1716C51.9037 16.6202 52.352 16.2304 52.6593 15.7802C52.8641 15.9029 52.8641 16.2726 52.9862 16.5173C53.2521 17.152 53.5376 17.8479 53.8654 18.4844C54.5382 19.7953 55.2952 21.0662 56.153 22.2129C56.4402 22.6225 56.8478 23.0734 57.2154 23.4423C57.3792 23.5851 57.5626 23.6676 57.6856 23.8514H57.7257V23.9133C57.1128 23.6874 56.7243 23.0533 56.2355 22.6831C55.3151 21.9873 54.213 20.9423 53.5786 19.9396C53.3133 19.3639 53.0265 18.8122 52.7405 18.2394V18.198C52.6183 18.3616 52.6593 18.5241 52.5981 18.7716C52.3328 19.7953 52.5371 20.963 51.6177 21.3312C50.5756 21.7625 49.7982 20.6354 49.472 20.1232C48.4296 18.4232 48.1441 15.5553 48.8792 13.2403C49.0425 12.7278 49.0647 12.1132 49.3498 11.704C49.2882 11.3341 49.0031 11.233 48.8382 11.0063C48.5522 10.6189 48.3074 10.1676 48.0835 9.7374C47.6534 8.897 47.3474 7.89285 47.0209 6.99156C46.8773 6.62351 46.8362 6.25402 46.6931 5.9056C46.4489 5.37379 45.9989 4.84027 45.6518 4.36978C45.1818 3.69356 43.8127 2.38296 44.3646 1.05058V1.05058ZM51.0654 5.06419C51.12 5.11892 51.1859 5.16677 51.2541 5.21391L51.3363 5.27035C51.4459 5.34628 51.5521 5.42623 51.6171 5.53511C51.7203 5.67924 51.7395 5.8215 51.863 5.96591C51.863 6.45832 51.7203 6.78568 51.4322 6.98969C51.4322 6.98969 51.4126 7.01118 51.3924 7.03124C51.229 6.70302 51.0859 6.37651 50.9214 6.04858C50.7189 5.76233 50.4325 5.53525 50.2674 5.20818H50.2277V5.16706C50.4743 5.10617 50.7189 5.06419 51.0654 5.06419Z" fill="#00758F" />
    </g>
    <defs>
        <clipPath id="clip0_12_382">
            <rect width="73.36" height="50" fill="white" transform="translate(0.919922)" />
        </clipPath>
    </defs>
</svg>