<svg width="58" height="50" viewBox="0 0 58 50" fill="none" xmlns="http://www.w3.org/2000/svg">
    <g clip-path="url(#clip0_12_354)">
        <path d="M47.0834 16.1895C46.4859 15.9845 45.8834 15.7946 45.2763 15.62C45.3783 15.2033 45.4722 14.7917 45.5555 14.3873C46.9235 7.74673 46.0292 2.39695 42.9746 0.635549C40.0459 -1.05305 35.2562 0.707698 30.4189 4.91757C29.9421 5.33321 29.476 5.76083 29.0209 6.20002C28.7162 5.90797 28.4061 5.6216 28.0908 5.34103C23.0211 0.839716 17.9395 -1.05743 14.8882 0.709014C11.9621 2.40287 11.0956 7.43204 12.3272 13.7255C12.4497 14.3488 12.5881 14.9688 12.7421 15.5851C12.0228 15.7895 11.3288 16.007 10.6645 16.2386C4.72064 18.311 0.924805 21.5586 0.924805 24.9272C0.924805 28.4064 4.9998 31.8961 11.1906 34.0121C11.6925 34.1829 12.1986 34.3412 12.7084 34.4869C12.5428 35.1506 12.3958 35.8189 12.2676 36.4908C11.0934 42.675 12.0103 47.5853 14.9285 49.2684C17.9426 51.0066 23.0013 49.2202 27.927 44.9143C28.3264 44.5642 28.717 44.2042 29.0985 43.8347C29.5914 44.3102 30.0974 44.772 30.616 45.2193C35.3875 49.325 40.0998 50.9829 43.0152 49.2952C46.0263 47.552 47.0051 42.277 45.7345 35.8592C45.6344 35.3564 45.5221 34.8562 45.3978 34.3588C45.7531 34.2535 46.1018 34.1452 46.4417 34.0325C52.8777 31.9002 57.0652 28.4529 57.0652 24.9272C57.0652 21.5463 53.1467 18.2768 47.0834 16.1895V16.1895ZM45.6875 31.7562C45.3805 31.8577 45.0656 31.9557 44.7445 32.0511C44.034 29.8018 43.0752 27.4101 41.9018 24.9388C43.0215 22.5266 43.9434 20.1654 44.634 17.9307C45.2084 18.097 45.7656 18.2722 46.3029 18.457C51.498 20.2456 54.6669 22.8897 54.6669 24.9272C54.6669 27.0974 51.2445 29.9147 45.6875 31.7562V31.7562ZM43.3818 36.325C43.9437 39.1627 44.0237 41.7285 43.6516 43.7345C43.3173 45.5369 42.645 46.7384 41.8134 47.2198C40.0443 48.2439 36.2608 46.9127 32.1803 43.4013C31.6979 42.9854 31.2272 42.5561 30.7687 42.1141C32.3507 40.384 33.9316 38.3728 35.4746 36.1391C38.1886 35.8983 40.7527 35.5044 43.0779 34.9669C43.1899 35.4172 43.2912 35.87 43.3818 36.325V36.325ZM20.0643 47.0428C18.3358 47.6531 16.959 47.6706 16.1268 47.1908C14.3559 46.1695 13.6198 42.2268 14.6239 36.9382C14.7433 36.3132 14.88 35.6917 15.0338 35.0744C17.3334 35.5831 19.8788 35.9489 22.5991 36.1695C24.1527 38.3553 25.7792 40.3643 27.4184 42.1235C27.0701 42.4606 26.7135 42.789 26.3489 43.1086C24.1706 45.0125 21.988 46.3634 20.0643 47.0428V47.0428ZM11.9665 31.7428C9.22897 30.807 6.96823 29.591 5.41866 28.2641C4.02612 27.0717 3.32327 25.8877 3.32327 24.9272C3.32327 22.8829 6.37086 20.2755 11.454 18.5033C12.0709 18.2884 12.7165 18.0855 13.3864 17.8952C14.0891 20.1803 15.0106 22.5695 16.1226 24.9855C14.9961 27.4373 14.0614 29.8647 13.352 32.1768C12.8867 32.0435 12.4247 31.8988 11.9665 31.7428V31.7428ZM14.6809 13.2647C13.6259 7.87283 14.3266 3.8055 16.0899 2.78467C17.968 1.69739 22.1211 3.24761 26.4985 7.13445C26.7839 7.38848 27.0648 7.64766 27.3408 7.91186C25.7097 9.6634 24.0981 11.6575 22.5584 13.8303C19.918 14.075 17.3906 14.468 15.0669 14.9945C14.9237 14.4213 14.795 13.8446 14.6809 13.2649V13.2647ZM38.8974 19.2445C38.3485 18.2965 37.7793 17.3604 37.1902 16.4369C38.9814 16.6634 40.6976 16.9641 42.3092 17.3316C41.8255 18.8825 41.2224 20.5037 40.5125 22.166C39.9936 21.1815 39.4552 20.2075 38.8974 19.2445V19.2445ZM29.022 9.6259C30.1281 10.8244 31.236 12.1623 32.3257 13.6141C30.1152 13.5097 27.9009 13.5092 25.6904 13.6127C26.7812 12.1744 27.8985 10.8382 29.022 9.6259ZM19.0831 19.261C18.5323 20.2162 18.0039 21.1842 17.4983 22.1641C16.8 20.5077 16.2024 18.879 15.7145 17.3062C17.3163 16.9478 19.0244 16.6548 20.8042 16.4325C20.2084 17.3616 19.6346 18.3047 19.0831 19.2608V19.261ZM20.8553 33.5926C19.0165 33.3873 17.2827 33.1095 15.6814 32.7608C16.177 31.1599 16.7877 29.4965 17.5011 27.8046C18.0088 28.7852 18.5394 29.7538 19.0926 30.7095C19.6614 31.6919 20.2505 32.6542 20.8553 33.5926ZM29.0882 40.3974C27.9513 39.1711 26.8176 37.8143 25.7103 36.3551C26.7853 36.3972 27.8812 36.4187 28.995 36.4187C30.1393 36.4187 31.2704 36.393 32.3838 36.3434C31.2906 37.829 30.1869 39.1877 29.0882 40.3974ZM40.5351 27.7182C41.2856 29.4287 41.918 31.0834 42.4202 32.6568C40.7926 33.0283 39.0351 33.3274 37.1834 33.5496C37.7767 32.6089 38.3513 31.6565 38.9068 30.693C39.4716 29.7136 40.0145 28.7218 40.5351 27.7182V27.7182ZM36.8294 29.4948C35.979 30.972 35.0808 32.4213 34.1362 33.8402C32.4252 33.9613 30.7103 34.0215 28.995 34.0206C27.2478 34.0206 25.5485 33.9662 23.9121 33.8601C22.9428 32.4445 22.0275 30.9927 21.168 29.5079H21.1682C20.3128 28.031 19.5137 26.5221 18.7728 24.9845C19.5119 23.4465 20.3085 21.9369 21.161 20.4588L21.1608 20.459C22.013 18.9806 22.921 17.535 23.8829 16.1255C25.5524 15.9991 27.2645 15.9334 28.9948 15.9334H28.995C30.7331 15.9334 32.4474 15.9998 34.1165 16.127C35.0687 17.5344 35.9709 18.975 36.8215 20.4461C37.6769 21.9209 38.484 23.4232 39.2417 24.9505C38.4918 26.4934 37.6872 28.0091 36.8294 29.4948V29.4948ZM41.7768 2.71318C43.6566 3.79739 44.3877 8.16954 43.2066 13.9031C43.1312 14.2689 43.0465 14.6415 42.9544 15.0193C40.625 14.4816 38.0959 14.0818 35.4478 13.8334C33.9053 11.6366 32.3068 9.6395 30.7022 7.91055C31.1228 7.50518 31.5533 7.11032 31.9934 6.72634C36.1382 3.11954 40.0119 1.69542 41.7768 2.71318V2.71318ZM28.995 19.9141C31.7636 19.9141 34.0081 22.1586 34.0081 24.9272C34.0081 27.6959 31.7636 29.9404 28.995 29.9404C26.2263 29.9404 23.9818 27.6959 23.9818 24.9272C23.9818 22.1586 26.2263 19.9141 28.995 19.9141V19.9141Z" fill="#00D8FF" />
    </g>
    <defs>
        <clipPath id="clip0_12_354">
            <rect width="56.15" height="50" fill="white" transform="translate(0.919922)" />
        </clipPath>
    </defs>
</svg>