<svg width="51" height="50" viewBox="0 0 51 50" fill="none" xmlns="http://www.w3.org/2000/svg">
    <g clip-path="url(#clip0_12_395)">
        <path d="M49.3371 22.7725L27.5066 0.943164C26.2501 -0.314063 24.2111 -0.314063 22.9531 0.943164L18.4199 5.47637L24.1705 11.227C25.5068 10.7754 27.0392 11.0783 28.1044 12.1436C29.1748 13.2156 29.4755 14.7611 29.013 16.1018L34.555 21.6439C35.8959 21.182 37.4429 21.4809 38.5138 22.5535C40.0105 24.0496 40.0105 26.4744 38.5138 27.9715C37.0167 29.4688 34.5919 29.4688 33.0941 27.9715C31.9683 26.8445 31.6902 25.1912 32.2601 23.8043L27.0917 18.6359L27.0912 32.2369C27.4658 32.4222 27.808 32.6669 28.1044 32.9615C29.6011 34.4576 29.6011 36.8826 28.1044 38.3809C26.6074 39.8773 24.1814 39.8773 22.6865 38.3809C21.1898 36.8826 21.1898 34.4578 22.6865 32.9617C23.0451 32.6029 23.4714 32.3187 23.9406 32.1256V18.3979C23.4707 18.206 23.0442 17.9217 22.6865 17.5617C21.5525 16.4293 21.2798 14.7654 21.8609 13.373L16.1921 7.70371L1.22339 22.6715C-0.0344239 23.9299 -0.0344239 25.9691 1.22339 27.2266L23.0542 49.0563C24.3111 50.3137 26.3498 50.3137 27.6082 49.0563L49.3369 27.3279C50.5943 26.0701 50.5943 24.0297 49.3369 22.7725" fill="#DE4C36" />
    </g>
    <defs>
        <clipPath id="clip0_12_395">
            <rect width="50" height="50" fill="white" transform="translate(0.280029)" />
        </clipPath>
    </defs>
</svg>