<svg width="49" height="50" viewBox="0 0 49 50" fill="none" xmlns="http://www.w3.org/2000/svg">
    <g clip-path="url(#clip0_12_380)">
        <path d="M48.8902 11.2917C48.9082 11.3582 48.9175 11.4267 48.9175 11.4957V22.2093C48.9175 22.4892 48.7678 22.7477 48.5249 22.887L39.533 28.0644V38.3258C39.533 38.4631 39.497 38.598 39.4284 38.717C39.3599 38.8359 39.2613 38.9348 39.1425 39.0036L20.372 49.8091C20.329 49.8334 20.2822 49.8489 20.2353 49.8657C20.2177 49.8714 20.2012 49.8822 20.1826 49.8871C20.0514 49.9217 19.9135 49.9217 19.7822 49.8871C19.7606 49.8815 19.7411 49.8695 19.7207 49.8618C19.6777 49.846 19.6328 49.8324 19.5919 49.8091L0.825231 39.0034C0.705977 38.935 0.606886 38.8363 0.537954 38.7173C0.469023 38.5983 0.432688 38.4633 0.432617 38.3258L0.432617 6.18487C0.432617 6.11441 0.442466 6.04604 0.45989 5.97975C0.465761 5.95722 0.479397 5.93676 0.487352 5.91422C0.501935 5.87331 0.515761 5.83127 0.537163 5.7932C0.551746 5.76782 0.573147 5.74737 0.590761 5.72388C0.613299 5.69263 0.633754 5.66044 0.660079 5.63297C0.682617 5.61063 0.711973 5.59396 0.737352 5.57445C0.765761 5.55097 0.790951 5.52559 0.823147 5.50703H0.824094L10.2078 0.104376C10.3266 0.0359914 10.4613 0 10.5984 0C10.7355 0 10.8702 0.0359914 10.9891 0.104376L20.3728 5.50703H20.3747C20.4059 5.52672 20.4324 5.55097 20.4606 5.5735C20.486 5.59301 20.5144 5.61063 20.5368 5.63222C20.5642 5.66044 20.5838 5.69282 20.607 5.72388C20.6237 5.74737 20.6463 5.76782 20.6599 5.7932C20.6822 5.83222 20.6949 5.87332 20.7106 5.91441C20.7184 5.93676 20.732 5.95722 20.7379 5.9807C20.7559 6.04718 20.7652 6.11593 20.7654 6.18487V26.2595L28.5847 21.757V11.4947C28.5847 11.4265 28.5945 11.357 28.6122 11.2917C28.619 11.2682 28.6317 11.2477 28.6394 11.2254C28.6552 11.1843 28.6688 11.1421 28.6902 11.1042C28.7048 11.0788 28.7262 11.0584 28.743 11.0349C28.7663 11.0036 28.7858 10.9714 28.8131 10.944C28.8358 10.9216 28.8641 10.9049 28.8894 10.8854C28.9188 10.862 28.9442 10.8366 28.9754 10.818H28.9764L38.361 5.41536C38.4798 5.34688 38.6145 5.31084 38.7516 5.31084C38.8888 5.31084 39.0235 5.34688 39.1423 5.41536L48.526 10.818C48.5591 10.8375 48.5845 10.862 48.6139 10.8843C48.6381 10.904 48.6665 10.9216 48.6891 10.943C48.7163 10.9714 48.7358 11.0036 48.7591 11.0349C48.7769 11.0584 48.7983 11.0788 48.8122 11.1042C48.8345 11.1421 48.8472 11.1843 48.8627 11.2254C48.8716 11.2477 48.8843 11.2682 48.8902 11.2917V11.2917ZM47.3533 21.7572V12.8481L44.0694 14.7385L39.5328 17.3506V26.2597L47.3542 21.7572H47.3533V21.7572ZM37.9696 37.8737V28.9584L33.507 31.507L20.7644 38.7798V47.7786L37.9696 37.8733V37.8737ZM1.99682 7.53714V37.8737L19.2 47.7779V38.7807L10.2129 33.6943L10.2101 33.6924L10.2063 33.6906C10.176 33.6729 10.1504 33.6476 10.1222 33.6262C10.0976 33.6065 10.0694 33.5909 10.048 33.5693L10.0461 33.5665C10.0207 33.5421 10.0031 33.5118 9.98167 33.4845C9.96197 33.458 9.93868 33.4356 9.92296 33.4084L9.92201 33.4053C9.9044 33.3762 9.8936 33.3409 9.88091 33.3078C9.86822 33.2784 9.85175 33.251 9.84379 33.2199V33.219C9.83413 33.1818 9.83224 33.1426 9.82826 33.1046C9.82447 33.0754 9.81652 33.046 9.81652 33.0167V12.0398L5.28072 9.42653L1.99682 7.53828V7.53714ZM10.5995 1.6843L2.78091 6.18487L10.5976 10.6852L18.415 6.18373L10.5976 1.6843H10.5995ZM14.6654 29.771L19.201 27.1601V7.53714L15.9175 9.42767L11.3805 12.0396V31.6623L14.6654 29.771V29.771ZM38.7516 6.99528L30.9341 11.4957L38.7516 15.9962L46.568 11.4947L38.7517 6.99528H38.7516ZM37.9694 17.3506L33.4328 14.7385L30.1491 12.8481V21.7572L34.6847 24.3684L37.9696 26.2597V17.3506H37.9694ZM19.9813 37.4275L31.4478 30.8813L37.1796 27.6101L29.3678 23.1125L20.3737 28.2905L12.1764 33.0099L19.9813 37.4275Z" fill="#FF2D20" />
    </g>
    <defs>
        <clipPath id="clip0_12_380">
            <rect width="48.49" height="50" fill="white" transform="translate(0.429932)" />
        </clipPath>
    </defs>
</svg>