<svg width="45" height="50" viewBox="0 0 45 50" fill="none" xmlns="http://www.w3.org/2000/svg">
    <g clip-path="url(#clip0_12_378)">
        <path d="M22.2799 49.9072C21.5921 49.9072 20.9503 49.7239 20.3542 49.4029L14.2561 45.7808C13.3392 45.2764 13.7977 45.0931 14.0728 45.0014C15.3106 44.5887 15.5399 44.497 16.8236 43.7633C16.9613 43.6716 17.1447 43.7174 17.2821 43.8091L21.9589 46.606C22.1423 46.6977 22.3715 46.6977 22.5091 46.606L40.8032 36.0149C40.9866 35.9232 41.0783 35.7398 41.0783 35.5105V14.3737C41.0783 14.1444 40.9866 13.961 40.8032 13.8694L22.5091 3.32385C22.3257 3.23215 22.0965 3.23215 21.9589 3.32385L3.6648 13.8695C3.48141 13.9612 3.38971 14.1905 3.38971 14.3738V35.5105C3.38971 35.6939 3.48141 35.9232 3.6648 36.0149L8.66255 38.9033C11.3677 40.2787 13.0639 38.674 13.0639 37.0694V16.2076C13.0639 15.9325 13.2933 15.6574 13.6143 15.6574H15.9527C16.2278 15.6574 16.5029 15.8867 16.5029 16.2076V37.0692C16.5029 40.6913 14.5312 42.8003 11.0925 42.8003C10.038 42.8003 9.21272 42.8003 6.87449 41.6541L2.06013 38.9033C0.868086 38.2154 0.134521 36.9316 0.134521 35.5562V14.4197C0.134521 13.0443 0.868086 11.7605 2.06013 11.0726L20.3542 0.481462C21.5004 -0.160406 23.0593 -0.160406 24.2055 0.481462L42.4996 11.0726C43.6916 11.7604 44.4252 13.0441 44.4252 14.4197V35.5564C44.4252 36.9318 43.6916 38.2155 42.4996 38.9033L24.2055 49.4948C23.6094 49.7699 22.9217 49.9074 22.2799 49.9074V49.9072ZM27.9193 35.3728C19.8956 35.3728 18.2451 31.705 18.2451 28.5872C18.2451 28.3121 18.4743 28.037 18.7952 28.037H21.1793C21.4544 28.037 21.6838 28.2204 21.6838 28.4955C22.0506 30.9254 23.1051 32.1176 27.9651 32.1176C31.8165 32.1176 33.4672 31.2465 33.4672 29.1834C33.4672 27.9911 33.0087 27.12 27.0023 26.5238C22.0048 26.0195 18.8869 24.9192 18.8869 20.9304C18.8869 17.2164 22.0046 15.0157 27.2316 15.0157C33.1003 15.0157 35.9888 17.033 36.3556 21.4346C36.3556 21.5721 36.3098 21.7097 36.2181 21.8472C36.1264 21.9389 35.9888 22.0306 35.8513 22.0306H33.4672C33.2378 22.0306 33.0087 21.8472 32.9627 21.618C32.4125 19.0963 30.9913 18.2711 27.2316 18.2711C23.0136 18.2711 22.5091 19.7382 22.5091 20.8386C22.5091 22.1683 23.1051 22.5808 28.7904 23.3143C34.43 24.0479 37.0892 25.1026 37.0892 29.0456C37.0433 33.0804 33.7423 35.3728 27.9193 35.3728V35.3728Z" fill="#539E43" />
    </g>
    <defs>
        <clipPath id="clip0_12_378">
            <rect width="44.3" height="50" fill="white" transform="translate(0.129883)" />
        </clipPath>
    </defs>
</svg>