<svg width="50" height="50" viewBox="0 0 50 50" fill="none" xmlns="http://www.w3.org/2000/svg">
    <path d="M11.875 21.5485C12.3568 21.4879 12.8458 21.5234 13.3138 21.6529C13.7818 21.7824 14.2195 22.0034 14.6016 22.3031C14.8481 22.6829 15.0053 23.1136 15.0613 23.5628C15.1173 24.0121 15.0707 24.4682 14.925 24.8969C14.7972 25.9521 14.2868 26.9239 13.4906 27.6281C12.5305 28.2466 11.3954 28.5367 10.2563 28.4547H8.06875L9.4125 21.5625L11.875 21.5485ZM3.125 35.4328H6.71875L7.57031 31.0578H10.6437C11.776 31.0867 12.906 30.9407 13.9938 30.625C14.8871 30.3301 15.7037 29.8401 16.3844 29.1906C17.5616 28.1321 18.355 26.7134 18.6406 25.1563C18.8661 24.3812 18.9058 23.564 18.7565 22.7708C18.6072 21.9775 18.2731 21.2306 17.7813 20.5906C17.1883 20.003 16.4742 19.5519 15.6889 19.2688C14.9035 18.9857 14.0659 18.8774 13.2344 18.9516H6.33906L3.125 35.4328ZM21.2766 14.5672H24.8437L23.9797 18.9422H27.1531C28.6111 18.7895 30.0759 19.16 31.2859 19.9875C31.6863 20.4427 31.96 20.9951 32.0796 21.5893C32.1992 22.1836 32.1604 22.7989 31.9672 23.3734L30.4766 31.0438H26.8672L28.2859 23.7516C28.3846 23.4733 28.4199 23.1766 28.3891 22.883C28.3582 22.5894 28.2621 22.3064 28.1078 22.0547C27.5906 21.6836 26.9513 21.5238 26.3203 21.6078H23.4719L21.6359 31.0516H18.0609L21.2766 14.5672ZM39.9047 21.5485C40.3865 21.4879 40.8755 21.5234 41.3435 21.6529C41.8115 21.7824 42.2492 22.0034 42.6313 22.3031C42.8778 22.6829 43.035 23.1136 43.091 23.5628C43.147 24.0121 43.1004 24.4682 42.9547 24.8969C42.8269 25.9521 42.3165 26.9239 41.5203 27.6281C40.5584 28.248 39.421 28.5381 38.2797 28.4547H36.0938L37.4344 21.5547L39.9047 21.5485ZM31.1547 35.4328H34.7484L35.6 31.0578H38.675C39.8094 31.0873 40.9415 30.9413 42.0312 30.625C42.9246 30.3301 43.7412 29.8401 44.4219 29.1906C45.5962 28.1309 46.3868 26.7124 46.6703 25.1563C46.8958 24.3812 46.9355 23.564 46.7862 22.7708C46.6369 21.9775 46.3028 21.2306 45.8109 20.5906C45.2177 20.0041 44.5037 19.554 43.7187 19.2717C42.9337 18.9894 42.0965 18.8818 41.2656 18.9563H34.3594L31.1547 35.4328Z" fill="#8993BE" />
</svg>