<svg width="50" height="30" viewBox="0 0 50 30" fill="none" xmlns="http://www.w3.org/2000/svg">
    <g clip-path="url(#clip0_64_6)">
        <path d="M24.9399 0C18.2907 0 14.1347 3.32474 12.4724 9.97403C14.9659 6.64929 17.8749 5.40253 21.1997 6.23377C23.0965 6.70792 24.4524 8.08422 25.9531 9.6074C28.3979 12.089 31.2273 14.961 37.4075 14.961C44.0568 14.961 48.2127 11.6363 49.875 4.98701C47.3815 8.31175 44.4725 9.55851 41.1477 8.72727C39.2509 8.25312 37.8951 6.87682 36.3943 5.35364C33.9495 2.87201 31.1201 0 24.9399 0ZM12.4724 14.961C5.82313 14.961 1.66716 18.2858 0.00488281 24.9351C2.49839 21.6103 5.40742 20.3636 8.73216 21.1948C10.629 21.669 11.9848 23.0453 13.4856 24.5684C15.9304 27.0501 18.7598 29.9221 24.9399 29.9221C31.5892 29.9221 35.7452 26.5973 37.4075 19.9481C34.914 23.2728 32.0049 24.5195 28.6802 23.6883C26.7834 23.2142 25.4275 21.8379 23.9268 20.3147C21.482 17.8331 18.6526 14.961 12.4724 14.961Z" fill="url(#paint0_linear_64_6)" />
    </g>
    <defs>
        <linearGradient id="paint0_linear_64_6" x1="-1.38051" y1="9.57507" x2="41.6905" y2="34.409" gradientUnits="userSpaceOnUse">
            <stop stop-color="#2298BD" />
            <stop offset="1" stop-color="#0ED7B5" />
        </linearGradient>
        <clipPath id="clip0_64_6">
            <rect width="49.88" height="30" fill="white" />
        </clipPath>
    </defs>
</svg>