<svg width="431" height="314" viewBox="0 0 431 314" fill="none" xmlns="http://www.w3.org/2000/svg">
    <g clip-path="url(#clip0_16_377)">
        <path d="M106.383 286.516L107.26 302.933L107.26 302.934C107.408 305.709 106.309 308.422 104.205 310.477C102.102 312.532 99.1656 313.761 96.0425 313.892L95.6598 313.909L94.2246 287.028L106.383 286.516Z" fill="#2F2E41" />
        <path d="M369.097 258.772C360.296 274.031 349.133 288.788 335.009 302.145C334.696 302.447 334.379 302.741 334.059 303.04L300.596 288.965C300.8 288.663 301.025 288.323 301.266 287.952C315.641 266.101 402.413 132.804 399.671 102.613C399.991 105.103 410.276 187.448 369.097 258.772Z" fill="#E6E6E6" />
        <path d="M341.465 304.861C340.996 305.097 340.516 305.329 340.033 305.553L314.929 294.994C315.28 294.772 315.689 294.511 316.159 294.217C323.85 289.311 346.719 274.591 369.096 258.771C393.144 241.771 416.628 223.505 420.116 214.786C419.408 216.786 397.397 277.561 341.465 304.861Z" fill="#E6E6E6" />
        <path d="M41.7587 313.253C63.155 313.253 80.5002 297.842 80.5002 278.832C80.5002 259.822 63.155 244.411 41.7587 244.411C20.3623 244.411 3.01709 259.822 3.01709 278.832C3.01709 297.842 20.3623 313.253 41.7587 313.253Z" fill="#FFFC31" />
        <path d="M57.2769 264.387H26.2398C24.8683 264.389 23.5535 264.873 22.5837 265.735C21.6139 266.597 21.0684 267.765 21.0669 268.983V288.68C21.0684 289.899 21.6139 291.067 22.5837 291.929C23.5535 292.79 24.8683 293.275 26.2398 293.276H57.277C58.6484 293.275 59.9633 292.79 60.9331 291.929C61.9028 291.067 62.4483 289.899 62.4499 288.68V268.983C62.4483 267.765 61.9028 266.597 60.933 265.735C59.9633 264.873 58.6484 264.389 57.2769 264.387ZM57.2769 267.014C57.4622 267.014 57.6467 267.036 57.826 267.077L41.7619 278.463L25.7918 267.054C25.9392 267.027 26.0893 267.014 26.2397 267.014H57.2769ZM57.2769 290.65H26.2398C25.652 290.649 25.0885 290.442 24.6729 290.072C24.2573 289.703 24.0235 289.203 24.0228 288.68V269.16L40.8323 281.168C41.0941 281.355 41.4197 281.457 41.7555 281.458C42.0914 281.459 42.4175 281.358 42.68 281.171L59.4939 269.255V288.68C59.4933 289.202 59.2595 289.703 58.8438 290.072C58.4282 290.442 57.8647 290.649 57.2769 290.65Z" fill="white" />
        <path d="M191.271 229.137L199.94 229.2C200.817 229.207 201.685 229.043 202.484 228.721C203.282 228.398 203.992 227.925 204.564 227.334C205.135 226.743 205.555 226.048 205.793 225.298C206.032 224.548 206.083 223.761 205.944 222.991C205.794 222.163 205.428 221.378 204.874 220.699C204.32 220.019 203.594 219.465 202.756 219.08C201.917 218.696 200.988 218.491 200.044 218.484C199.1 218.476 198.167 218.665 197.321 219.037L189.146 222.621L161.186 228.16L149.207 217.279L142.327 227.348L158.491 238.444L191.271 229.137Z" fill="#FFB8B8" />
        <path d="M189.647 308.709L179.434 310.454C172.458 290.916 164.899 272.414 164.9 258.104C155.027 267.866 142.785 273.451 128.369 275.205L129.94 253.567L141.724 247.983L159.76 240.587C161.339 239.939 163.042 239.565 164.779 239.484C168.156 239.326 171.479 240.283 174.108 242.172C176.738 244.06 178.488 246.746 179.022 249.713L189.647 308.709Z" fill="#2F2E41" />
        <path d="M140.742 272.587L136.672 275.336C134.921 276.518 132.853 277.273 130.673 277.525C128.493 277.778 126.277 277.519 124.244 276.775C112.585 269.011 104.302 271.301 96.795 283.021C87.7905 273.992 85.5689 260.951 93.6052 247.459L138.189 248.332L147.223 245.889L140.742 272.587Z" fill="#2F2E41" />
        <path d="M125.894 313.023C123.339 313.721 120.59 313.599 118.126 312.677C115.663 311.755 113.644 310.092 112.422 307.98C108.415 304.844 105.034 300.355 102.102 294.896C99.9986 290.892 98.192 286.769 96.6944 282.555C94.6655 276.987 98.0581 270.905 104.372 269.239C104.56 269.19 104.75 269.143 104.943 269.099C113.372 267.176 122.028 271.496 124.91 278.792L133.288 300.007C133.783 301.261 133.995 302.588 133.913 303.915C133.83 305.241 133.454 306.54 132.807 307.737C132.159 308.934 131.253 310.006 130.139 310.892C129.025 311.778 127.726 312.46 126.315 312.9C126.176 312.943 126.035 312.984 125.894 313.023Z" fill="#2F2E41" />
        <path opacity="0.2" d="M100.675 292.48C100.675 292.48 110.495 302.252 112.46 307.836L100.675 292.48Z" fill="black" />
        <path d="M62.5889 246.362L59.3023 253.489C58.9698 254.211 58.8182 254.988 58.8584 255.766C58.8985 256.545 59.1292 257.306 59.5345 257.997C59.9399 258.688 60.51 259.292 61.2052 259.768C61.9003 260.243 62.7038 260.578 63.5596 260.749C64.4806 260.933 65.4374 260.922 66.353 260.718C67.2685 260.513 68.1173 260.121 68.8309 259.572C69.5446 259.023 70.1032 258.333 70.4619 257.557C70.8205 256.781 70.9692 255.941 70.8958 255.105L70.1877 247.03L74.7861 221.908L90.6065 216.07L82.6415 206.653L65.0419 215.865L62.5889 246.362Z" fill="#FFB8B8" />
        <path d="M141.135 247.459C129.849 264.303 107.349 270.825 88.0781 257.636C91.468 247.74 102.413 220.389 95.3422 219.342C80.3298 224.936 80.308 211.803 77.5 205.23L111.674 194.062L130.136 198.599L133.921 199.792C136.384 200.569 138.52 201.997 140.042 203.884C141.564 205.772 142.399 208.028 142.435 210.35C134.68 220.304 128.939 230.923 141.135 247.459Z" fill="#FFFC31" />
        <path d="M145.456 233.848L131.904 223.902L136.421 200.693L154.883 218.143L145.456 233.848Z" fill="#FFFC31" />
        <path d="M370.323 74.4117H368.386V27.2786C368.386 20.0439 365.151 13.1055 359.393 7.98973C353.635 2.87399 345.826 0 337.683 0H225.291C217.148 0 209.338 2.87399 203.58 7.98973C197.823 13.1055 194.588 20.0439 194.588 27.2786V285.855C194.588 293.09 197.823 300.028 203.58 305.144C209.338 310.26 217.148 313.134 225.291 313.134H337.683C345.826 313.134 353.635 310.26 359.393 305.144C365.151 300.028 368.385 293.09 368.385 285.855V107.962H370.323L370.323 74.4117Z" fill="#3F3D56" />
        <path d="M338.922 7.09631H324.251C324.926 8.56604 325.184 10.1607 325.002 11.7398C324.82 13.3189 324.203 14.834 323.207 16.1515C322.21 17.4691 320.864 18.5486 319.288 19.295C317.711 20.0415 315.952 20.4319 314.165 20.4319H249.777C247.991 20.4317 246.232 20.0413 244.655 19.2949C243.079 18.5485 241.733 17.4691 240.736 16.1517C239.74 14.8344 239.123 13.3195 238.941 11.7406C238.759 10.1617 239.016 8.56723 239.691 7.0976H225.986C219.905 7.0976 214.073 9.24394 209.773 13.0644C205.473 16.8849 203.057 22.0667 203.057 27.4697V285.665C203.057 291.068 205.473 296.25 209.773 300.071C214.073 303.891 219.905 306.037 225.986 306.037H338.918C344.999 306.037 350.831 303.891 355.131 300.071C359.431 296.25 361.847 291.068 361.847 285.665V285.665V27.4684C361.847 22.0654 359.431 16.8836 355.131 13.0631C350.831 9.24264 344.999 7.0963 338.918 7.0963H338.922L338.922 7.09631Z" fill="white" />
        <path d="M282.648 291.609C289.602 291.609 295.239 286.6 295.239 280.422C295.239 274.243 289.602 269.235 282.648 269.235C275.694 269.235 270.057 274.243 270.057 280.422C270.057 286.6 275.694 291.609 282.648 291.609Z" fill="#E6E6E6" />
        <path d="M231.569 176.966C230.379 176.966 229.411 177.948 229.411 179.155C229.411 180.362 230.379 181.344 231.569 181.344H333.335C334.525 181.344 335.494 180.362 335.494 179.155C335.494 177.948 334.525 176.966 333.335 176.966H231.569Z" fill="#E6E6E6" />
        <path d="M231.569 228.598C230.379 228.598 229.411 229.58 229.411 230.787C229.411 231.994 230.379 232.976 231.569 232.976H333.335C334.525 232.976 335.494 231.994 335.494 230.787C335.494 229.58 334.525 228.598 333.335 228.598H231.569Z" fill="#E6E6E6" />
        <path d="M231.569 190.101C230.379 190.101 229.411 191.083 229.411 192.29C229.411 193.497 230.379 194.479 231.569 194.479H275.359C276.55 194.479 277.518 193.497 277.518 192.29C277.518 191.083 276.55 190.101 275.359 190.101H231.569Z" fill="#E6E6E6" />
        <path d="M231.569 202.621C230.379 202.621 229.411 203.603 229.411 204.81C229.411 206.017 230.379 206.999 231.569 206.999H333.335C334.525 206.999 335.494 206.017 335.494 204.81C335.494 203.603 334.525 202.621 333.335 202.621H231.569Z" fill="#E6E6E6" />
        <path d="M231.569 215.756C230.379 215.756 229.411 216.738 229.411 217.945C229.411 219.152 230.379 220.134 231.569 220.134H275.359C276.55 220.134 277.518 219.152 277.518 217.945C277.518 216.738 276.55 215.756 275.359 215.756H231.569Z" fill="#E6E6E6" />
        <path d="M250.781 77.2868H314.13C314.829 77.2875 315.5 77.5349 315.995 77.9745C316.49 78.4141 316.768 79.0102 316.769 79.632V138.25C316.768 138.871 316.49 139.467 315.995 139.907C315.5 140.347 314.829 140.594 314.13 140.595H250.781C250.081 140.594 249.41 140.347 248.915 139.907C248.42 139.467 248.142 138.871 248.141 138.25V79.6319C248.142 79.0102 248.42 78.4141 248.915 77.9745C249.41 77.5349 250.081 77.2875 250.781 77.2868Z" fill="#FFFC31" />
        <path d="M300.631 128.507C300.867 128.507 301.1 128.466 301.318 128.387C301.536 128.307 301.734 128.19 301.901 128.042C302.067 127.894 302.2 127.718 302.29 127.525C302.38 127.332 302.427 127.125 302.427 126.915C302.427 126.706 302.381 126.499 302.291 126.305C302.201 126.112 302.068 125.936 301.902 125.788C301.735 125.64 301.537 125.523 301.32 125.443C301.102 125.363 300.869 125.322 300.633 125.322H264.279C264.044 125.322 263.81 125.363 263.592 125.443C263.375 125.522 263.177 125.64 263.01 125.787C262.843 125.935 262.711 126.111 262.62 126.304C262.53 126.497 262.484 126.705 262.483 126.914C262.483 127.123 262.53 127.33 262.62 127.524C262.71 127.717 262.842 127.893 263.009 128.041C263.175 128.189 263.373 128.306 263.591 128.386C263.808 128.466 264.042 128.507 264.277 128.507H300.631Z" fill="white" />
        <path d="M300.631 119.126C301.107 119.126 301.562 118.958 301.899 118.66C302.235 118.361 302.423 117.956 302.423 117.534C302.423 117.112 302.235 116.707 301.899 116.408C301.562 116.109 301.107 115.942 300.631 115.942H264.279C263.804 115.942 263.348 116.109 263.012 116.408C262.676 116.706 262.487 117.111 262.486 117.533C262.486 117.955 262.675 118.36 263.011 118.659C263.346 118.958 263.802 119.126 264.277 119.126H300.631Z" fill="white" />
        <path d="M282.455 89.3748C284.686 89.3748 286.867 89.9626 288.722 91.0638C290.577 92.165 292.023 93.7302 292.876 95.5615C293.73 97.3928 293.954 99.4078 293.518 101.352C293.083 103.296 292.009 105.082 290.431 106.483C288.854 107.885 286.844 108.839 284.656 109.226C282.468 109.613 280.2 109.414 278.139 108.656C276.077 107.897 274.316 106.613 273.076 104.965C271.837 103.317 271.175 101.379 271.175 99.3967C271.179 96.7397 272.368 94.1923 274.483 92.3135C276.597 90.4347 279.465 89.3778 282.455 89.3748Z" fill="white" />
        <path d="M138.532 191.024H105.045C104.356 191.023 103.696 190.78 103.209 190.347C102.722 189.914 102.448 189.327 102.447 188.715V175.891C102.447 171.333 104.485 166.962 108.112 163.739C111.739 160.517 116.659 158.706 121.789 158.706C126.918 158.706 131.838 160.517 135.465 163.739C139.092 166.962 141.13 171.333 141.13 175.891V188.715C141.129 189.327 140.855 189.914 140.368 190.347C139.881 190.78 139.221 191.023 138.532 191.024Z" fill="#2F2E41" />
        <path d="M137.929 183.695C141.685 177.59 139.16 169.934 132.288 166.597C125.416 163.259 116.8 165.503 113.043 171.609C109.287 177.714 111.812 185.37 118.684 188.707C125.556 192.045 134.172 189.801 137.929 183.695Z" fill="#FFB6B6" />
        <path d="M145.706 177.173H125.229L125.019 174.561L123.969 177.173H120.817L120.4 171.996L118.32 177.173H112.219V176.917C112.223 173.313 113.837 169.858 116.705 167.309C119.573 164.761 123.462 163.327 127.519 163.323H130.406C134.462 163.327 138.351 164.761 141.22 167.309C144.088 169.857 145.701 173.313 145.706 176.917V177.173Z" fill="#2F2E41" />
        <path d="M125.062 193.418C124.908 193.417 124.754 193.405 124.602 193.382L109.608 191.031V169.014H126.114L125.705 169.438C120.02 175.329 124.303 184.881 127.362 190.051C127.588 190.43 127.688 190.857 127.652 191.285C127.616 191.712 127.445 192.121 127.159 192.466C126.919 192.76 126.604 193 126.239 193.166C125.875 193.331 125.471 193.418 125.062 193.418Z" fill="#2F2E41" />
        <path d="M174.982 302.12L193.481 302.119H193.482C196.609 302.119 199.607 303.223 201.818 305.187C204.029 307.151 205.271 309.815 205.271 312.593V312.933L174.983 312.934L174.982 302.12Z" fill="#2F2E41" />
        <path d="M430.516 314H0.48427C0.355833 314 0.232657 313.955 0.141839 313.874C0.0510208 313.793 0 313.684 0 313.57C0 313.456 0.0510208 313.346 0.141839 313.266C0.232657 313.185 0.355833 313.14 0.48427 313.14H430.516C430.644 313.14 430.767 313.185 430.858 313.266C430.949 313.346 431 313.456 431 313.57C431 313.684 430.949 313.793 430.858 313.874C430.767 313.955 430.644 314 430.516 314Z" fill="#CACACA" />
    </g>
    <defs>
        <clipPath id="clip0_16_377">
            <rect width="431" height="314" fill="white" />
        </clipPath>
    </defs>
</svg>