<svg width="50" height="50" viewBox="0 0 50 50" fill="none" xmlns="http://www.w3.org/2000/svg">
    <path d="M41.6667 8.33334H8.33333C6.04166 8.33334 4.1875 10.2083 4.1875 12.5L4.16666 37.5C4.16666 39.7917 6.04166 41.6667 8.33333 41.6667H41.6667C43.9583 41.6667 45.8333 39.7917 45.8333 37.5V12.5C45.8333 10.2083 43.9583 8.33334 41.6667 8.33334ZM40.8333 17.1875L26.1042 26.3958C25.4375 26.8125 24.5625 26.8125 23.8958 26.3958L9.16666 17.1875C8.95776 17.0702 8.77483 16.9118 8.62893 16.7218C8.48304 16.5318 8.37721 16.3141 8.31786 16.082C8.25851 15.8499 8.24688 15.6082 8.28366 15.3715C8.32044 15.1348 8.40486 14.908 8.53183 14.7048C8.6588 14.5017 8.82567 14.3264 9.02234 14.1896C9.21901 14.0528 9.4414 13.9573 9.67603 13.909C9.91066 13.8606 10.1527 13.8604 10.3874 13.9082C10.6221 13.9561 10.8447 14.0511 11.0417 14.1875L25 22.9167L38.9583 14.1875C39.1553 14.0511 39.3779 13.9561 39.6126 13.9082C39.8473 13.8604 40.0893 13.8606 40.324 13.909C40.5586 13.9573 40.781 14.0528 40.9776 14.1896C41.1743 14.3264 41.3412 14.5017 41.4682 14.7048C41.5951 14.908 41.6796 15.1348 41.7163 15.3715C41.7531 15.6082 41.7415 15.8499 41.6821 16.082C41.6228 16.3141 41.517 16.5318 41.3711 16.7218C41.2252 16.9118 41.0422 17.0702 40.8333 17.1875Z" fill="#F6F7EB" />
</svg>