<svg width="50" height="50" viewBox="0 0 50 50" fill="none" xmlns="http://www.w3.org/2000/svg">
    <path d="M25 4.68124C20.053 4.68113 15.2674 6.44142 11.4995 9.64709C7.73167 12.8528 5.22751 17.2946 4.43516 22.1778C3.64281 27.0609 4.61398 32.0667 7.17487 36.2993C9.73577 40.5318 13.7193 43.715 18.4125 45.2792C19.4542 45.4625 19.8437 44.8375 19.8437 44.2896C19.8437 43.7958 19.8187 42.1542 19.8187 40.4104C14.5833 41.3729 13.2292 39.1333 12.8125 37.9625C12.3503 36.8224 11.6174 35.812 10.6771 35.0187C9.94791 34.6292 8.90625 33.6646 10.65 33.6396C11.3164 33.7117 11.9556 33.9434 12.5134 34.3152C13.0712 34.6869 13.5311 35.1877 13.8542 35.775C14.139 36.2868 14.5221 36.7374 14.9814 37.1009C15.4407 37.4645 15.9672 37.7338 16.5308 37.8934C17.0944 38.0531 17.6839 38.1 18.2656 38.0314C18.8474 37.9628 19.4098 37.7801 19.9208 37.4937C20.0111 36.4341 20.4835 35.4434 21.25 34.7062C16.6146 34.1854 11.7708 32.3896 11.7708 24.4208C11.7413 22.3499 12.5054 20.3463 13.9062 18.8208C13.2694 17.0213 13.3439 15.0464 14.1146 13.3C14.1146 13.3 15.8583 12.7542 19.8437 15.4354C23.2527 14.4978 26.8515 14.4978 30.2604 15.4354C34.2437 12.7271 35.9896 13.3 35.9896 13.3C36.7605 15.0464 36.835 17.0213 36.1979 18.8208C37.603 20.3436 38.3678 22.3491 38.3333 24.4208C38.3333 32.4146 33.4625 34.1854 28.8271 34.7062C29.3243 35.2102 29.7072 35.8152 29.9499 36.4802C30.1925 37.1452 30.2892 37.8547 30.2333 38.5604C30.2333 41.3479 30.2083 43.5875 30.2083 44.2896C30.2083 44.8375 30.5979 45.4875 31.6396 45.2792C36.3242 43.7019 40.2958 40.5112 42.8455 36.2766C45.3951 32.0419 46.3569 27.039 45.5591 22.1608C44.7613 17.2826 42.2559 12.8467 38.49 9.64495C34.7241 6.44318 29.943 4.68393 25 4.68124Z" fill="#F6F7EB" />
</svg>